<?xml version="1.0" encoding="utf-8"?>
<!-- Generator: Adobe Illustrator 25.2.1, SVG Export Plug-In . SVG Version: 6.00 Build 0)  -->
<svg version="1.1" xmlns="http://www.w3.org/2000/svg" xmlns:xlink="http://www.w3.org/1999/xlink" x="0px" y="0px"
	 viewBox="0 0 961.48 651.489" enable-background="new 0 0 961.48 651.489" xml:space="preserve">
<g id="Cables">
</g>
<g id="Capa_1">
</g>
<g id="PC">
</g>
<g id="Monitor_D">
</g>
<g id="Codigo">
</g>
<g id="Herramientas_Monitor_D">
	<g>
		<g>
			<path fill="#121921" d="M175.163,51.385l3.269-1.14c5.71,4.764,9.216,10.362,13.742,14.782
				c17.909,16.874,31.714,29.082,80.183,33.781c22.961,2.182,37.341-5.944,52.419-13.417c12.105-6.086,24.705-12.404,42.555-13.913
				c20.256-1.65,44.544,3.215,74.388,14.935l-1.834,1.979c-64.009-25.254-88.472-12.934-112.175-1.054
				c-14.969,7.493-30.312,15.175-55.051,12.798c-50.819-4.869-64.934-18.291-82.821-35.29
				C185.619,60.609,180.983,56.169,175.163,51.385z"/>
			<path fill="#121921" d="M164.828,110.36l-4.614,0.831c11.678,3.937,22.636,7.296,32.296,10.258
				c27.105,8.272,40.398,7.43,43.281,16.749c1.009,3.323,4.337,13.699,1.886,17.817c-2.837,5.429-4.525,13.499,0.81,19.495
				c7.141,6.457,20.534,8.55,49.469,14.641c86.074,11.017,421.289,48.185,424.749,48.546l2.307-1.264
				c-3.316-0.361-338.531-37.529-424.605-48.51c-57.663-7.373-57.295-18.333-53.233-29.45c0.972-2.661,1.102-2.286,2.087-7.051
				c0.657-3.178-1.705-15.041-3.783-17.534c-5.946-7.137-20.185-6.487-42.489-14.437
				C183.185,117.561,176.362,114.261,164.828,110.36z"/>
			<path fill="#121921" d="M172.966,145.678l-1.739,0.699c3.091,1.574,5.796,3.016,8.404,4.284
				c27.242,13.856,27.242,13.856,27.242,28.674c0,0.743,0,1.486,0,2.36c0,19.801,8.211,26.751,24.44,33.351
				c17.099,6.95,45.982-1.399,47.238-1.792l-1.256-0.831c-0.29,0.087-28.691,8.261-44.533,1.923
				c-15.746-6.382-23.764-13.201-23.764-32.564c0-0.831,0-1.574,0-2.36c0.097-15.211,0.097-15.211-27.821-29.373
				C178.858,148.694,176.057,147.296,172.966,145.678z"/>
			<path fill="#121921" d="M166.288,128.09l-1.063,0.874c39.124,9.66,40.573,11.977,43.567,34.138
				c0.29,1.705,0.483,3.322,0.58,4.896c2.029,19.407,3.188,30.073,85.106,37.241c86.748,7.562,259.569,0.656,261.211,0.568
				l-0.193-1.005c-1.739,0.087-174.173,6.95-260.632-0.568c-80.18-6.994-81.242-16.741-83.367-36.236
				c-0.193-1.574-0.386-3.191-0.58-4.896c-1.449-11.059-2.608-17.572-8.598-22.336C196.621,136.089,186.671,133.117,166.288,128.09z
				"/>
		</g>
		<rect x="680.894" y="209.021" fill="#1F2733" width="45.675" height="66.749"/>
		<rect x="534.149" y="11.784" fill="#1F2733" width="339.164" height="223.3"/>
		<rect x="658.271" y="274.48" fill="#1F2733" width="90.92" height="6.709"/>
		<path fill="#0B0E11" d="M726.569,226.998v19.87c-13.333,1.032-33.977,2.753-45.675,3.527v-21.418
			C694.226,228.461,714.698,227.6,726.569,226.998z"/>
		<polygon fill="#35485E" points="749.191,274.48 742.654,278.436 658.271,278.436 658.271,274.48 		"/>
		<path fill="#1F2733" d="M714.956,0h-22.278c-1.72,0-3.097,1.462-3.097,3.097v10.236h28.558V3.183
			C718.053,1.376,716.591,0,714.956,0z"/>
		<path fill="#35485E" d="M690.958,8.172c0-1.634-0.43-5.591,2.667-6.795c3.011-1.204,17.719-0.688,20.214-0.344
			c2.408,0.43,3.011,2.667,3.355,5.247c0.344,2.581-2.15,5.677-3.097,5.677c-0.86,0-15.311,0-18.322,0
			C692.678,11.956,690.958,10.752,690.958,8.172z"/>
		<path fill="#202328" d="M707.387,6.709c0,1.978-1.634,3.699-3.699,3.699s-3.699-1.634-3.699-3.699
			c0-1.978,1.634-3.699,3.699-3.699C705.753,3.011,707.387,4.645,707.387,6.709z"/>
		<rect x="709.537" y="4.989" fill="#9E3230" width="1.72" height="3.699"/>
		<g>
			<path fill="#616848" d="M807.133,241.864c-1.379,0-3.266-0.653-4.065-1.742c-1.524-2.323-5.734,7.403-5.734,11.468
				c0,0.363,0,0.653,0,1.089c-0.073,6.024,0.145,12.266,2.831,14.952c0.871,0.871,2.032,1.379,3.266,1.379
				c5.661,0,13.5-6.024,13.5-17.347C816.931,246.219,812.504,241.864,807.133,241.864z M802.633,265.017
				c-3.919-0.871-2.903-9.363-2.903-13.427c0-2.613,3.919-2.25,4.645-4.573c0.581-2.032,1.306-2.685,2.685-2.685
				c4.065,0,7.331,3.266,7.331,7.331C814.391,261.678,807.133,266.033,802.633,265.017z"/>
			<path fill="#5B462D" d="M801.326,280.041c-0.073,0.363-0.145,0.653-0.218,0.944c-0.145,0.726-0.726,1.016-1.452,1.016h-21.194
				c-0.726,0-1.379-0.29-1.452-1.016c-0.073-0.29-0.145-0.581-0.218-0.944c-1.089-5.661-3.702-21.702-2.903-38.54
				c0.073-1.96,0.218-3.919,0.435-5.879c0.145-1.161,1.597-2.032,4.645-2.54c1.742-0.363,4.137-0.508,6.968-0.581
				c1.016,0,2.105-0.073,3.194-0.073c4.863,0,8.419,0.29,10.815,0.798c2.54,0.508,3.847,1.379,3.992,2.395
				c0.218,1.96,0.363,3.919,0.435,5.879C805.028,258.267,802.415,274.307,801.326,280.041z"/>
			<path fill="#737A57" d="M804.302,241.428c-1.669-1.379-7.839-2.323-15.242-2.323c-7.331,0-13.5,1.016-15.242,2.323
				c0.073-1.96,0.218-3.919,0.435-5.879c0.218-2.032,4.79-3.266,14.806-3.266c9.944,0,14.589,1.234,14.806,3.266
				C804.012,237.509,804.157,239.469,804.302,241.428z"/>
			<path fill="#737A57" d="M801.326,280.041c-0.073,0.363-0.145,0.653-0.218,0.944c-0.145,0.726-0.726,1.016-1.452,1.016h-21.194
				c-0.726,0-1.379-0.29-1.452-1.016c-0.073-0.29-0.145-0.581-0.218-0.944H801.326z"/>
			<path fill="#4D3C24" d="M797.335,281.928h-9.726c-0.073-0.363-0.073-0.653-0.145-0.944c-0.508-6.024-2.323-37.306-1.597-48.556
				c1.016,0,2.105-0.073,3.194-0.073c4.863,0,8.419,0.29,10.815,0.798C800.891,242.227,799.222,270.17,797.335,281.928z"/>
			<path fill="#382B1B" d="M782.528,281.928h-3.992c-0.726,0-1.379-0.29-1.452-1.016c-0.073-0.29-0.145-0.581-0.218-0.944
				c-1.089-5.661-3.702-21.702-2.903-38.54c0.073-1.96,0.218-3.919,0.435-5.879c0.145-1.161,1.597-2.032,4.645-2.54
				C777.81,245.928,779.625,271.549,782.528,281.928z"/>
			<path fill="#737A57" d="M785.939,232.428c-0.145,1.815-0.218,4.137-0.218,6.75c-2.685,0.145-5.153,0.435-7.113,0.726
				c0.073-2.54,0.145-4.863,0.363-6.895C780.714,232.719,783.036,232.501,785.939,232.428z"/>
			<path fill="#616848" d="M797.552,280.041c-0.073,0.653-0.218,1.379-0.29,1.96h-9.726c-0.073-0.363-0.073-0.653-0.145-0.944
				c0-0.29-0.073-0.581-0.073-0.944L797.552,280.041L797.552,280.041z"/>
			<path fill="#616848" d="M800.238,240.049c-2.831-0.508-6.75-0.871-11.105-0.871c-1.161,0-2.323,0-3.339,0.073
				c0-2.613,0.073-5.008,0.218-6.75c0.435,0,0.871,0,1.379,0c0.29,0,0.508,0,0.798,0c0.363,0,0.653,0,1.016,0s0.653,0,0.944,0
				c0.871,0,1.669,0,2.395,0.073c0.508,0,1.016,0.073,1.524,0.073c0.435,0,0.944,0.073,1.379,0.073c0.218,0,0.435,0.073,0.653,0.073
				c0.073,0,0.145,0,0.218,0c0.218,0,0.435,0.073,0.653,0.073c0.218,0,0.435,0.073,0.581,0.073c0.145,0,0.29,0.073,0.435,0.073
				c0.218,0,0.363,0.073,0.435,0.073c0.508,0.073,1.016,0.218,1.452,0.29C800.165,234.896,800.238,237.291,800.238,240.049z"/>
			<path fill="#484C34" d="M778.899,233.009c-0.218,2.032-0.29,4.282-0.363,6.895c-2.323,0.435-3.992,0.944-4.718,1.524
				c0.073-1.96,0.218-3.919,0.435-5.879c0-0.073,0-0.145,0.073-0.218c0-0.073,0.073-0.145,0.073-0.218s0.073-0.145,0.073-0.218
				c0-0.073,0.073-0.073,0.145-0.145c0-0.073,0.073-0.073,0.145-0.145c0.073-0.073,0.145-0.145,0.218-0.218
				c0.073,0,0.073-0.073,0.145-0.073c0.29-0.218,0.581-0.435,1.089-0.581c0.073,0,0.145-0.073,0.218-0.073s0.218-0.073,0.29-0.073
				c0.218-0.073,0.435-0.145,0.581-0.218h0.073c0.218-0.073,0.363-0.145,0.508-0.145c0.145-0.073,0.363-0.073,0.508-0.145
				C778.609,233.082,778.754,233.082,778.899,233.009z"/>
			<path fill="#484C34" d="M782.528,281.928h-3.992c-0.726,0-1.379-0.29-1.452-1.016c-0.073-0.29-0.145-0.581-0.218-0.944h5.153
				C782.165,280.695,782.31,281.275,782.528,281.928z"/>
		</g>
		<g>
			<polygon fill="#9FA5AA" points="176.412,293.403 163.079,358.26 112.587,601.945 103.297,601.945 156.542,304.843 
				158.52,293.403 			"/>
			<polygon fill="#B3C0C9" points="107.684,592.914 107.684,598.935 110.179,597.472 165.832,316.37 158.95,310.262 			"/>
			<path fill="#717F89" d="M176.412,293.403l-13.333,64.771c-1.892-9.376,6.365-39.74,4.645-46.707
				c-1.462-5.505-5.677-7.914-11.182-6.709l1.978-11.44h17.891V293.403z"/>
		</g>
		<g>
			<polygon fill="#9FA5AA" points="812.327,293.403 825.746,358.26 876.238,601.945 885.528,601.945 832.283,304.843 
				830.305,293.403 			"/>
			<polygon fill="#B3C0C9" points="881.141,592.914 881.141,598.935 878.646,597.472 822.993,316.37 829.875,310.262 			"/>
			<path fill="#717F89" d="M812.327,293.403l13.419,64.771c1.892-9.376-6.365-39.74-4.645-46.707
				c1.462-5.505,5.677-7.914,11.182-6.709l-1.978-11.354H812.327L812.327,293.403z"/>
		</g>
		<g>
			<polygon fill="#9FA5AA" points="209.442,293.403 197.658,350.088 153.531,563.238 145.446,563.238 191.895,303.381 
				193.701,293.403 			"/>
			<polygon fill="#B3C0C9" points="149.144,555.41 149.144,560.657 151.381,559.367 200.066,313.531 194.131,308.112 			"/>
			<path fill="#717F89" d="M209.442,293.403l-11.698,56.685c-1.634-8.258,5.591-34.751,3.957-40.858
				c-1.29-4.903-4.989-6.967-9.806-5.935l1.72-9.978L209.442,293.403L209.442,293.403z"/>
		</g>
		<g>
			<polygon fill="#9FA5AA" points="779.383,293.403 791.167,350.088 835.294,563.238 843.379,563.238 796.844,303.381 
				795.124,293.403 			"/>
			<polygon fill="#B3C0C9" points="839.681,555.41 839.681,560.657 837.444,559.367 788.759,313.531 794.608,308.112 			"/>
			<path fill="#717F89" d="M779.383,293.403l11.698,56.685c1.634-8.258-5.591-34.751-3.957-40.858
				c1.29-4.903,4.989-6.967,9.806-5.935l-1.72-9.978L779.383,293.403L779.383,293.403z"/>
		</g>
		<g>
			<polygon fill="#35485E" points="350.245,275.77 353.858,232.847 362.374,232.847 360.997,277.834 			"/>
			<rect x="356.008" y="209.021" fill="#1F2733" width="36.299" height="66.749"/>
			<rect x="326.247" y="274.48" fill="#1F2733" width="100.382" height="6.709"/>
			<path fill="#0B0E11" d="M392.307,226.998v19.87c-10.58,1.032-27.009,2.753-36.299,3.527v-21.418
				C366.502,228.461,382.846,227.6,392.307,226.998z"/>
			<polygon fill="#35485E" points="426.714,274.48 421.467,278.436 354.374,278.436 348.181,274.48 			"/>
		</g>
		<g>
			<polygon fill="#35485E" points="255.713,235.084 252.53,237.492 247.455,14.537 250.38,11.784 			"/>
			<polygon fill="#141B23" points="264.4,232.417 255.713,235.084 252.53,237.492 478.152,237.492 479.528,232.847 			"/>
			<polygon fill="#1F2733" points="255.713,235.084 250.38,11.784 520.042,11.784 525.375,235.084 			"/>
			<g>
				<polygon fill="#5D5D5D" points="522.537,221.923 258.207,221.923 256.315,152.422 253.562,42.062 253.39,36.643 252.874,15.053 
					517.29,15.053 517.462,19.87 517.806,36.643 				"/>
				<polygon fill="#FFFFFF" points="462.927,191.645 276.787,191.645 271.884,57.287 458.11,57.287 				"/>
				<path fill="#424242" d="M522.537,221.923h-44.041l-1.548-53.933l-0.172-5.161l-3.441-123.864l-0.172-6.537l0.86-0.258l0,0
					c9.978-0.602,31.482-2.064,43.61-2.839l0.172,7.225l0.086,2.753l3.097,123.52l0.172,5.161L522.537,221.923z"/>
				<path fill="#282828" d="M517.892,39.224l-44.557-0.344l-0.172-6.537l0.86-0.258l0,0c9.978-0.602,31.482-2.064,43.611-2.839
					l0.172,7.225L517.892,39.224z"/>
				<polygon fill="#424242" points="517.806,36.643 253.39,36.643 252.874,15.053 517.29,15.053 				"/>
				<rect x="255.025" y="16.773" fill="#AAAAAA" width="8" height="3.441"/>
				<rect x="255.025" y="21.934" fill="#AAAAAA" width="16.171" height="3.441"/>
				<rect x="275.497" y="21.934" fill="#AAAAAA" width="16.171" height="3.441"/>
				<rect x="295.797" y="21.934" fill="#AAAAAA" width="16.171" height="3.441"/>
				<rect x="316.269" y="21.934" fill="#AAAAAA" width="16.171" height="3.441"/>
				<rect x="336.569" y="21.934" fill="#AAAAAA" width="16.171" height="3.441"/>
				<rect x="357.041" y="21.934" fill="#AAAAAA" width="16.171" height="3.441"/>
				<rect x="265.777" y="16.773" fill="#AAAAAA" width="8" height="3.441"/>
				<rect x="276.443" y="16.773" fill="#AAAAAA" width="8" height="3.441"/>
				<rect x="287.109" y="16.773" fill="#AAAAAA" width="8" height="3.441"/>
				<rect x="297.861" y="16.773" fill="#AAAAAA" width="8" height="3.441"/>
				<rect x="308.441" y="16.773" fill="#AAAAAA" width="8" height="3.441"/>
				<rect x="319.107" y="16.773" fill="#AAAAAA" width="8" height="3.441"/>
				<rect x="329.859" y="16.773" fill="#AAAAAA" width="8" height="3.441"/>
				<polygon fill="#424242" points="282.378,152.422 256.401,152.422 253.562,42.062 278.765,42.062 				"/>
				<polygon fill="#5D5D5D" points="265.863,52.814 254.767,52.814 254.509,43.869 265.433,43.869 				"/>
				<polygon fill="#5D5D5D" points="277.819,52.814 266.637,52.814 266.293,43.869 277.389,43.869 				"/>
				<polygon fill="#5D5D5D" points="266.207,62.362 255.025,62.362 254.853,53.502 265.863,53.502 				"/>
				<polygon fill="#5D5D5D" points="278.077,62.362 266.981,62.362 266.637,53.502 277.733,53.502 				"/>
				<polygon fill="#5D5D5D" points="266.551,71.91 255.369,71.91 255.197,63.136 266.121,63.136 				"/>
				<polygon fill="#5D5D5D" points="278.421,71.91 267.239,71.91 266.981,63.136 278.077,63.136 				"/>
				<polygon fill="#5D5D5D" points="266.895,81.63 255.713,81.63 255.541,72.684 266.465,72.684 				"/>
				<polygon fill="#5D5D5D" points="278.765,81.63 267.669,81.63 267.239,72.684 278.335,72.684 				"/>
				<polygon fill="#5D5D5D" points="267.153,91.178 255.971,91.178 255.885,82.232 266.809,82.232 				"/>
				<polygon fill="#5D5D5D" points="279.109,91.178 268.013,91.178 267.583,82.232 278.679,82.232 				"/>
				<polygon fill="#5D5D5D" points="267.497,100.726 256.401,100.726 256.143,91.78 267.067,91.78 				"/>
				<polygon fill="#5D5D5D" points="279.453,100.726 268.271,100.726 268.013,91.78 279.109,91.78 				"/>
				<polygon fill="#5D5D5D" points="267.841,110.36 256.745,110.36 256.487,101.414 267.497,101.414 				"/>
				<polygon fill="#5D5D5D" points="279.797,110.36 268.615,110.36 268.271,101.414 279.367,101.414 				"/>
				<polygon fill="#5D5D5D" points="268.185,119.907 257.089,119.907 256.831,110.962 267.841,110.962 				"/>
				<polygon fill="#5D5D5D" points="280.142,119.907 268.959,119.907 268.615,110.962 279.711,110.962 				"/>
				<polygon fill="#5D5D5D" points="268.529,129.455 257.347,129.455 257.175,120.595 268.099,120.595 				"/>
				<polygon fill="#AAAAAA" points="280.4,129.455 269.217,129.455 268.959,120.595 280.056,120.595 				"/>
				<polygon fill="#AAAAAA" points="268.873,139.175 257.691,139.175 257.519,130.229 268.443,130.229 				"/>
				<polygon fill="#5D5D5D" points="280.744,139.175 269.647,139.175 269.217,130.229 280.314,130.229 				"/>
				<polygon fill="#282828" points="265.605,146.573 258.723,146.573 258.551,141.068 265.347,141.068 				"/>
				<polygon fill="#282828" points="280.228,146.573 273.346,146.573 273.26,141.068 279.969,141.068 				"/>
				<polygon fill="#282828" points="272.83,146.573 265.949,146.573 265.863,141.068 272.572,141.068 				"/>
				<polygon fill="#C4893B" points="476.002,41.632 476.948,71.394 515.397,71.394 514.279,41.632 				"/>
				<rect x="479.958" y="88.253" fill="#282828" width="11.87" height="12.386"/>
				<rect x="479.958" y="109.413" fill="#282828" width="32.428" height="27.267"/>
				<rect x="500.344" y="88.253" fill="#282828" width="11.87" height="12.386"/>
				<polygon fill="#282828" points="521.161,167.991 476.948,167.991 476.862,162.744 521.075,162.744 				"/>
				<rect x="479.614" y="170.485" fill="#282828" width="7.742" height="5.333"/>
				<rect x="479.614" y="178.141" fill="#282828" width="7.742" height="5.333"/>
				<polygon fill="#424242" points="473.593,81.114 419.833,81.114 418.801,37.675 472.475,37.675 				"/>
				<rect x="418.715" y="36.643" fill="#282828" width="53.76" height="2.064"/>
				<polygon fill="#424242" points="475.056,159.561 421.381,159.561 419.833,92.038 473.507,92.038 				"/>
				<rect x="419.661" y="91.006" fill="#282828" width="53.76" height="2.064"/>
				<rect x="424.22" y="40.772" fill="#AAAAAA" width="18.924" height="6.967"/>
				<rect x="449.164" y="40.772" fill="#AAAAAA" width="18.924" height="6.967"/>
				<rect x="424.22" y="51.18" fill="#AAAAAA" width="18.924" height="6.967"/>
				<rect x="449.164" y="51.18" fill="#AAAAAA" width="18.924" height="6.967"/>
				<rect x="424.22" y="62.018" fill="#AAAAAA" width="18.924" height="6.967"/>
			</g>
		</g>
		<rect y="281.189" fill="#C2B59B" width="961.48" height="16.601"/>
		<g>
			<g>
				<rect x="285.13" y="251.599" fill="#202123" width="21.848" height="29.59"/>
				<rect x="306.893" y="251.599" fill="#363A3F" width="1.634" height="29.59"/>
			</g>
			<g>
				<rect x="277.905" y="268.2" fill="#FFFFFF" width="29.074" height="12.989"/>
				<path fill="#D5E0E2" d="M285.819,268.974c0.516,0,20.988,0,20.988,0v0.516l-20.386,0.172L285.819,268.974z"/>
				<path fill="#D5E0E2" d="M285.819,269.921c0.516,0,20.988,0,20.988,0v0.344l-20.386,0.086L285.819,269.921z"/>
				<path fill="#D5E0E2" d="M285.647,272.673c0.43,0,21.332,0,21.332,0v0.688h-13.505l13.505,0.688v6.021l-22.622,0.43
					L285.647,272.673z"/>
			</g>
			<g>
				<rect x="277.905" y="268.2" fill="#FFFFFF" width="29.074" height="12.989"/>
				<path fill="#D5E0E2" d="M285.905,270.007c0.516,0,20.988,0,20.988,0v0.516l-20.386,0.172L285.905,270.007z"/>
				<path fill="#D5E0E2" d="M285.905,271.211c0.516,0,20.988,0,20.988,0v0.172h-20.386L285.905,271.211z"/>
				<path fill="#D5E0E2" d="M285.647,272.673c0.43,0,21.332,0,21.332,0v0.688h-13.505l13.505,0.688v6.021l-22.622,0.43
					L285.647,272.673z"/>
			</g>
			<g>
				<rect x="277.905" y="261.061" fill="#FFFFFF" width="29.074" height="7.914"/>
				<path fill="#D5E0E2" d="M306.893,262.265c-0.43,0-22.622,0-22.622,0v0.516h13.505l-13.505,0.516v4.559l22.622,0.344V262.265z"/>
			</g>
			<g>
				<rect x="263.282" y="251.599" fill="#202123" width="21.848" height="29.59"/>
				<rect x="285.044" y="251.599" fill="#363A3F" width="1.634" height="29.59"/>
			</g>
		</g>
		<path fill="#423E3C" d="M898.678,281.189h38.191v-59.18h-29.676c-3.871-0.086-8.602,5.677-8.602,9.118L898.678,281.189
			L898.678,281.189z"/>
		<path fill="#5E5957" d="M920.268,234.826v46.363h27.009v-59.18h-14.107C926.031,222.009,920.268,227.686,920.268,234.826z"/>
		<path fill="#26211F" d="M901.172,234.826v16.773h16.687v-16.773c0-7.139,5.763-12.816,12.816-12.816h-16.687
			C906.85,222.009,901.172,227.686,901.172,234.826z"/>
		<path fill="#827774" d="M920.268,234.654v3.613c1.118-10.924,5.849-13.333,9.376-14.537c3.527-1.29,15.913,0,15.913,0
			s0.774,3.011,1.72,6.709v-8.43h-14.107C926.031,221.837,920.268,227.6,920.268,234.654z"/>
		<path fill="#231F20" d="M188.035,41.991H93.631c-3.77,0-6.826,3.056-6.826,6.826v220.919c0,3.221,2.235,5.915,5.237,6.632v3.927
			c0,0.494,0.53,0.894,1.184,0.894h7.191c0.654,0,1.184-0.4,1.184-0.894v-3.834c1.138-0.24,2.152-0.937,2.668-1.996
			c2.994-6.14,18.924-10.827,38.126-10.827c19.202,0,35.132,4.686,38.126,10.827c0.335,0.688,0.882,1.222,1.533,1.581v4.25
			c0,0.494,0.53,0.894,1.184,0.894h7.191c0.654,0,1.184-0.4,1.184-0.894v-4.624c0-0.04-0.024-0.075-0.031-0.114
			c1.962-1.199,3.276-3.354,3.276-5.822V48.816C194.86,45.047,191.804,41.991,188.035,41.991z"/>
		<path fill="#424242" d="M194.86,48.419l-2.892-23.207c0-3.568-2.893-6.46-6.46-6.46H96.158c-3.567,0-6.46,2.892-6.46,6.46
			l-2.893,23.207H194.86z"/>
		<path fill="#AAAAAA" d="M188.034,44.72h-44.471V152.6c0,2.216,1.837,4.019,4.095,4.019h44.472V48.739
			C192.13,46.523,190.293,44.72,188.034,44.72z"/>
		<path fill="#AAAAAA" d="M187.321,159.492h-0.973h-1.791h-3.112h-1.791h-0.973h-1.791h-3.112h-1.791h-0.973h-1.791h-3.111h-1.791
			h-0.973h-1.791h-3.111h-1.791h-0.973h-1.791h-3.112h-1.791h-0.973h-0.355c-0.574,0-1.129-0.08-1.66-0.216
			c-0.662-0.17-1.282-0.436-1.846-0.786c-0.359-0.223-0.694-0.478-1.002-0.762c-0.863-0.798-1.508-1.818-1.84-2.97
			c-0.162-0.563-0.254-1.154-0.254-1.767v-0.637v-5.236v-2.158v-5.235v-2.158v-5.235v-2.158v-5.235v-2.158v-5.235v-2.158v-5.235
			v-2.158v-5.235v-2.158v-5.235v-2.158v-5.236v-2.158v-5.235v-2.158v-5.235v-2.158v-5.235v-2.158v-5.235v-2.158v-5.235v-2.158V44.72
			h-1.589h-1.791h-1.352h-1.792H131.8h-1.792h-1.353h-1.791h-2.732h-1.791h-1.352h-1.792h-2.731h-1.792h-1.352h-1.791h-2.732h-1.791
			h-1.353h-1.792h-2.731h-1.792h-1.352h-1.791h-2.565c-0.924,0-1.768,0.314-2.454,0.825c-0.004,0.003-0.008,0.007-0.013,0.01
			c-0.142,0.107-0.274,0.224-0.401,0.347c-0.056,0.053-0.107,0.11-0.159,0.167c-0.071,0.077-0.139,0.157-0.205,0.24
			c-0.032,0.041-0.07,0.075-0.1,0.117l0.006,0.006c-0.479,0.656-0.769,1.453-0.769,2.322v2.602v1.727v1.092v1.726v2.847v1.727v1.091
			v1.727v2.847v1.727v1.091v1.727v2.847v1.727v1.091v1.727v2.847v1.727v1.092v1.727v2.847v1.727v1.091v1.727v2.847v1.727v1.091
			v1.727v2.847v1.727v1.091v1.727v2.847v1.727v1.092v1.726v2.847v1.727v1.091v1.727v2.847v1.727v1.091v1.727v2.847v1.727v1.091
			v1.727v2.847v1.727v1.092v1.727v2.847v1.727v1.091v1.727v2.847v1.727v1.091v1.727v2.847v1.727v1.091v1.727v2.847v1.727v1.092
			v1.726v2.847v1.727v1.091v1.727v2.847v1.727v1.091v1.727v2.847v1.727v1.091v1.727v2.847v1.727v1.092v1.727v2.847v1.727v1.091
			v1.727v2.847v1.727v1.091v1.727v2.847v1.727v1.091v1.727v2.847v1.727v1.091v1.727v2.847v1.727v1.091v1.727v2.847v1.727v1.091
			v1.727v2.847v1.727v1.091v1.727v2.847v1.727v1.092v1.727v3.417c0,0.654,0.174,1.263,0.455,1.809c0,0,0,0,0,0.001
			c0.097,0.187,0.204,0.368,0.324,0.538c0.117,0.159,0.241,0.312,0.38,0.453c0.009,0.009,0.016,0.021,0.025,0.03l0.005-0.005
			c0.743,0.74,1.767,1.205,2.905,1.205h1.721h1.791h3.04h0.298c0.123-0.343,0.277-0.678,0.445-1.008
			c0.586-1.149,1.447-2.222,2.539-3.219c0.297-0.271,0.611-0.537,0.943-0.797c1.031-0.81,2.219-1.566,3.549-2.265
			c0.382-0.201,0.776-0.397,1.18-0.588c1.119-0.53,2.318-1.027,3.591-1.486c0.872-0.315,1.777-0.613,2.713-0.895
			c1.212-0.364,2.478-0.697,3.781-1.005c0.462-0.109,0.929-0.215,1.402-0.317c0.856-0.185,1.725-0.36,2.611-0.522
			c0.714-0.13,1.439-0.25,2.169-0.364c0.054-0.008,0.107-0.017,0.161-0.025c0.515-0.08,1.033-0.156,1.555-0.228
			c1.64-0.227,3.313-0.416,5.01-0.568c0.648-0.058,1.3-0.109,1.954-0.156c1.836-0.131,3.692-0.219,5.555-0.262
			c0.794-0.019,1.588-0.03,2.383-0.033c0.124,0,0.249-0.003,0.373-0.003c1.664,0,3.33,0.038,4.987,0.108
			c0.709,0.03,1.417,0.065,2.122,0.108c1.821,0.111,3.625,0.264,5.399,0.459c0.972,0.107,1.932,0.23,2.882,0.362
			c1.284,0.179,2.548,0.379,3.783,0.604c0.503,0.092,1,0.188,1.493,0.287c0.67,0.135,1.331,0.277,1.982,0.425
			c0.809,0.185,1.601,0.382,2.377,0.588c0.122,0.032,0.247,0.063,0.367,0.096c0.401,0.109,0.794,0.222,1.184,0.337
			c1.598,0.469,3.115,0.984,4.526,1.549c0.421,0.168,0.833,0.341,1.236,0.518c0.836,0.367,1.629,0.754,2.378,1.158
			c0.411,0.221,0.805,0.45,1.187,0.682c0.073,0.045,0.143,0.09,0.216,0.135c0.31,0.193,0.61,0.389,0.9,0.589
			c0.078,0.054,0.154,0.108,0.231,0.162c0.291,0.206,0.57,0.417,0.838,0.631c0.052,0.041,0.105,0.082,0.156,0.124
			c1.313,1.071,2.346,2.237,3.051,3.496c0.001,0.002,0.003,0.005,0.004,0.007c0.177,0.316,0.332,0.638,0.467,0.966
			c0.048,0.117,0.104,0.231,0.147,0.349h0.212h1.791h1.721c1.138,0,2.162-0.465,2.905-1.205l0.005,0.005
			c0.009-0.009,0.016-0.021,0.025-0.03c0.139-0.141,0.263-0.294,0.38-0.453c0.486-0.663,0.78-1.47,0.78-2.348v-3.417v-1.727v-1.092
			v-1.727v-2.847v-1.727v-1.091v-1.727v-2.847v-1.727v-1.091v-1.727v-2.847v-1.727v-1.091v-1.727v-2.847v-1.727v-1.091v-1.727
			v-2.847v-1.727v-1.091v-1.727v-2.847v-1.727v-1.091v-1.727v-2.847v-1.727v-1.091v-1.727v-2.847v-1.727v-1.092v-1.727v-2.847
			v-1.727v-1.091v-1.727v-2.847v-1.727v-1.091v-1.727v-2.847v-1.727v-1.091v-1.727v-2.847v-1.726v-1.092v-1.727v-2.847v-1.727
			v-1.091v-1.727v-2.757h-3.017H187.321z M189.623,161.961v0.689v1.727v0.289v1.727v3.65v1.728v0.288v1.727v3.65v1.727v0.289v1.727
			v3.649v1.728v0.289v1.726v3.65v1.728v0.289v1.727v3.651v1.727v0.288v1.728v3.65v1.726v0.289v1.728v3.649v1.726v0.289v1.728v3.65
			v1.726v0.289v1.728v3.65v1.727v0.288v1.728v3.65v1.727v0.289v1.727v3.649v1.728v0.289v1.727v3.649v1.728v0.289v1.727v3.651v1.727
			v0.288v1.728v3.65v0.169c0,0.432-0.179,0.823-0.468,1.106c-0.288,0.282-0.684,0.457-1.121,0.457h-2.113
			c-0.214-0.382-0.46-0.753-0.721-1.119c-0.238-0.334-0.497-0.661-0.773-0.981c-0.845-0.982-1.856-1.901-3.02-2.753
			c-0.336-0.246-0.685-0.485-1.045-0.72c-1.134-0.74-2.388-1.426-3.737-2.062c-0.399-0.188-0.805-0.371-1.221-0.55
			c-0.083-0.036-0.167-0.072-0.251-0.107c-0.951-0.402-1.942-0.782-2.971-1.138c-0.333-0.115-0.672-0.227-1.013-0.337
			c-0.445-0.144-0.897-0.285-1.354-0.421c-1.488-0.443-3.035-0.844-4.631-1.202c-1.118-0.251-2.258-0.481-3.418-0.691
			c-0.994-0.18-2.001-0.344-3.019-0.495c-0.519-0.076-1.04-0.149-1.565-0.218c-0.769-0.101-1.543-0.194-2.321-0.279
			c-0.664-0.072-1.33-0.14-1.998-0.2c-0.325-0.029-0.65-0.055-0.976-0.081c-0.554-0.045-1.108-0.086-1.663-0.123
			c-1.213-0.081-2.428-0.143-3.642-0.186c-0.616-0.022-1.23-0.039-1.844-0.051c-0.047-0.001-0.094-0.002-0.141-0.003
			c-0.591-0.011-1.181-0.018-1.77-0.02c-0.143-0.001-0.288-0.003-0.431-0.003c-1.164,0-2.334,0.018-3.507,0.053
			c-0.574,0.017-1.149,0.038-1.725,0.064c-0.117,0.005-0.233,0.012-0.35,0.018c-0.634,0.03-1.267,0.066-1.901,0.106
			c-1.082,0.069-2.161,0.152-3.236,0.252c-0.542,0.05-1.084,0.104-1.623,0.162c-0.549,0.059-1.097,0.122-1.642,0.189
			c-0.698,0.086-1.391,0.181-2.081,0.28c-0.482,0.07-0.963,0.142-1.44,0.218c-0.511,0.082-1.02,0.167-1.525,0.256
			c-1.47,0.26-2.91,0.552-4.313,0.878c-0.822,0.191-1.628,0.395-2.422,0.608c-1.383,0.372-2.721,0.778-4.002,1.22
			c-0.441,0.152-0.877,0.309-1.304,0.469c-1.435,0.54-2.786,1.129-4.046,1.765c-3.844,1.941-6.802,4.331-8.409,7.203h-1.245h-3.994
			c-0.437,0-0.833-0.175-1.121-0.457c-0.289-0.283-0.468-0.675-0.468-1.106v-0.169v-3.65v-1.728v-0.288v-1.727v-3.651v-1.727v-0.289
			v-1.728v-3.649v-1.727v-0.289v-1.728v-3.649v-1.727v-0.289v-1.727v-3.65V231.2v-0.288v-1.727v-3.65v-1.728v-0.289v-1.726v-3.65
			v-1.728v-0.289V214.4v-3.649v-1.728v-0.289v-1.726v-3.65v-1.728v-0.288v-1.727v-3.651v-1.727v-0.289v-1.728v-3.65v-1.726v-0.289
			v-1.728v-3.649v-1.727v-0.289v-1.727v-3.65v-1.727v-0.288v-1.728v-3.65v-1.727v-0.289v-1.727V159v-1.728v-0.289v-1.726v-3.649
			v-1.728v-0.289v-1.726v-3.65v-1.728v-0.288v-1.727v-3.651v-1.727v-0.289v-1.728v-3.649v-1.726v-0.289v-1.728v-3.65v-1.726v-0.289
			v-1.727v-3.65v-1.727v-0.288V110.9v-3.65v-1.727v-0.289v-1.726v-3.649V98.13v-0.289v-1.727v-3.649v-1.728v-0.289v-1.726v-3.65
			v-1.728v-0.288v-1.727v-3.651v-1.727v-0.289v-1.728v-3.65v-1.726V68.27v-1.728v-3.649v-1.726v-0.289V59.15V55.5v-1.727v-0.288
			v-1.728v-3.004c0-0.192,0.04-0.374,0.105-0.545c0.153-0.402,0.464-0.727,0.863-0.895c0.191-0.08,0.401-0.125,0.621-0.125h3.149
			h1.791h0.185h1.792h3.898h1.792h0.185h1.791h3.899h1.791h0.185h1.792h3.898h1.792h0.185h1.791h3.899h1.791h0.185h1.792h3.898
			h1.792h0.185h1.458v1.406v2.675v1.728v1.262v1.727v2.676v1.728v1.263v1.727v2.676v1.728v1.262v1.727v2.676v1.728v1.263v1.727
			v2.676v1.727v1.262v1.728v2.676v1.727v1.263v1.728v2.675v1.727v1.262v1.728v2.675v1.727v1.263v1.728v2.676v1.728v1.262v1.727
			v2.676v1.728v1.263v1.727v2.676v1.728v1.262v1.727v2.676v1.728v1.263v1.727v2.676v1.727v1.262v1.728v2.676v1.727v1.263v1.728
			v0.895c0,0.557,0.059,1.099,0.158,1.628c0.088,0.47,0.216,0.924,0.375,1.366c0.48,1.328,1.264,2.513,2.276,3.47
			c0.303,0.287,0.628,0.551,0.969,0.794c1.207,0.862,2.633,1.439,4.182,1.633c0.377,0.047,0.759,0.079,1.15,0.079h0.559h0.565h1.791
			h3.52h1.791h0.565h1.791h3.52h1.791h0.565h1.791h3.52h1.791h0.565h1.791h3.52h1.791h0.565h1.791h3.52h1.791h0.565h1.791H189.623z"
			/>
		<g>
			<path d="M173.833,132.378h-10.539c-0.296,0-0.536-0.24-0.536-0.536v-2.981c0-0.296,0.24-0.536,0.536-0.536h10.539
				c0.296,0,0.536,0.24,0.536,0.536v2.981C174.369,132.138,174.129,132.378,173.833,132.378z"/>
			<rect x="163.521" y="128.392" fill="#FFE14B" width="10.083" height="1.627"/>
		</g>
		<path fill="#424242" d="M167.847,57.756c-6.461,0-11.719,5.257-11.719,11.718c0,6.461,5.257,11.719,11.719,11.719
			c6.461,0,11.718-5.257,11.718-11.719C179.565,63.013,174.308,57.756,167.847,57.756z"/>
		<path fill="#FFFFFF" d="M177.911,69.474c0,5.558-4.506,10.064-10.064,10.064c-5.558,0-10.064-4.506-10.064-10.064
			c0-5.558,4.506-10.064,10.064-10.064C173.405,59.41,177.911,63.916,177.911,69.474z"/>
		<path d="M167.847,75.812c-3.387,0-6.142-2.756-6.142-6.142c0-2.516,1.583-4.818,3.939-5.726c0.347-0.132,0.734,0.038,0.867,0.384
			c0.133,0.346-0.039,0.734-0.384,0.867c-1.842,0.711-3.08,2.509-3.08,4.475c0,2.647,2.153,4.8,4.801,4.8c2.646,0,4.8-2.154,4.8-4.8
			c0-1.966-1.238-3.764-3.08-4.475c-0.345-0.134-0.518-0.522-0.384-0.867c0.133-0.346,0.521-0.518,0.867-0.384
			c2.356,0.909,3.939,3.211,3.939,5.727C173.989,73.057,171.233,75.812,167.847,75.812z"/>
		<g>
			<path d="M167.847,70.341c-0.37,0-0.671-0.3-0.671-0.671v-7.251c0-0.37,0.3-0.671,0.671-0.671c0.37,0,0.671,0.301,0.671,0.671
				v7.251C168.518,70.041,168.217,70.341,167.847,70.341z"/>
		</g>
		<path fill="#232323" d="M167.855,89.834c-2.855,0-5.178,2.323-5.178,5.177c0,2.855,2.323,5.177,5.178,5.177
			c2.855,0,5.177-2.322,5.177-5.177C173.032,92.156,170.71,89.834,167.855,89.834z"/>
		<g>
			<path d="M172.085,95.011c0,2.335-1.895,4.229-4.23,4.229c-2.336,0-4.229-1.894-4.229-4.229c0-2.336,1.894-4.229,4.229-4.229
				C170.19,90.782,172.085,92.675,172.085,95.011z"/>
			<path fill="#FF9300" d="M170.978,95.011c0,1.725-1.399,3.123-3.123,3.123c-1.725,0-3.123-1.398-3.123-3.123
				c0-1.725,1.399-3.123,3.123-3.123C169.579,91.888,170.978,93.286,170.978,95.011z"/>
		</g>
		<path fill="#232323" d="M167.855,106.905c-2.855,0-5.178,2.322-5.178,5.177c0,2.856,2.323,5.178,5.178,5.178
			c2.855,0,5.177-2.322,5.177-5.178C173.032,109.228,170.71,106.905,167.855,106.905z"/>
		<g>
			<path d="M172.085,112.082c0,2.335-1.895,4.231-4.23,4.231c-2.336,0-4.229-1.895-4.229-4.231c0-2.335,1.894-4.228,4.229-4.228
				C170.19,107.854,172.085,109.747,172.085,112.082z"/>
			<path fill="#00A0C1" d="M170.978,112.082c0,1.725-1.399,3.124-3.123,3.124c-1.725,0-3.123-1.399-3.123-3.124
				c0-1.724,1.399-3.123,3.123-3.123C169.579,108.96,170.978,110.359,170.978,112.082z"/>
		</g>
		<g>
			<path d="M173.833,138.874h-10.539c-0.296,0-0.536-0.24-0.536-0.536v-2.981c0-0.296,0.24-0.536,0.536-0.536h10.539
				c0.296,0,0.536,0.24,0.536,0.536v2.981C174.369,138.634,174.129,138.874,173.833,138.874z"/>
			<rect x="163.521" y="134.888" fill="#FFE14B" width="10.083" height="1.627"/>
		</g>
		<g>
			<path d="M173.833,145.369h-10.539c-0.296,0-0.536-0.24-0.536-0.536v-2.981c0-0.296,0.24-0.536,0.536-0.536h10.539
				c0.296,0,0.536,0.24,0.536,0.536v2.981C174.369,145.129,174.129,145.369,173.833,145.369z"/>
			<rect x="163.521" y="141.383" fill="#FFE14B" width="10.083" height="1.627"/>
		</g>
		<g>
			<path d="M173.833,151.865h-10.539c-0.296,0-0.536-0.24-0.536-0.536v-2.981c0-0.296,0.24-0.536,0.536-0.536h10.539
				c0.296,0,0.536,0.24,0.536,0.536v2.981C174.369,151.625,174.129,151.865,173.833,151.865z"/>
			<rect x="163.521" y="147.879" fill="#FFE14B" width="10.083" height="1.627"/>
		</g>
		<path fill="#FF372F" d="M188.404,132.646c0,1.109-0.9,2.008-2.01,2.008c-1.109,0-2.008-0.9-2.008-2.008
			c0-1.11,0.9-2.01,2.008-2.01C187.504,130.637,188.404,131.536,188.404,132.646z"/>
		<g>
			<path d="M187.802,132.646c0,0.776-0.63,1.406-1.408,1.406c-0.776,0-1.406-0.63-1.406-1.406c0-0.777,0.63-1.408,1.406-1.408
				C187.171,131.239,187.802,131.869,187.802,132.646z"/>
		</g>
		<path fill="#8CC004" d="M188.404,139.606c0,1.109-0.9,2.009-2.01,2.009c-1.109,0-2.008-0.9-2.008-2.009
			c0-1.109,0.9-2.008,2.008-2.008C187.504,137.597,188.404,138.497,188.404,139.606z"/>
		<g>
			<path d="M187.802,139.606c0,0.777-0.63,1.408-1.408,1.408c-0.776,0-1.406-0.63-1.406-1.408c0-0.777,0.63-1.408,1.406-1.408
				C187.171,138.198,187.802,138.829,187.802,139.606z"/>
		</g>
		<path fill="#CB9400" d="M188.404,146.567c0,1.109-0.9,2.009-2.01,2.009c-1.109,0-2.008-0.9-2.008-2.009
			c0-1.11,0.9-2.01,2.008-2.01C187.504,144.557,188.404,145.457,188.404,146.567z"/>
		<g>
			<path d="M187.802,146.567c0,0.776-0.63,1.406-1.408,1.406c-0.776,0-1.406-0.63-1.406-1.406c0-0.777,0.63-1.408,1.406-1.408
				C187.171,145.159,187.802,145.789,187.802,146.567z"/>
		</g>
		<g>
			<rect x="537.504" y="27.869" fill="#272044" width="332.283" height="193.968"/>
			<rect x="602.188" y="27.869" fill="#FFFFFF" width="0.602" height="194.054"/>
			<rect x="546.535" y="35.525" fill="#2191F2" width="3.699" height="4.043"/>
			<rect x="551.782" y="36.471" fill="#E6E7E8" width="16.945" height="2.064"/>
			<rect x="546.535" y="58.405" fill="#2191F2" width="3.699" height="4.043"/>
			<rect x="551.782" y="59.352" fill="#E6E7E8" width="16.945" height="2.064"/>
			<rect x="546.535" y="88.253" fill="#2191F2" width="3.699" height="4.043"/>
			<rect x="551.782" y="89.113" fill="#E6E7E8" width="16.945" height="2.064"/>
			<rect x="546.535" y="95.909" fill="#2191F2" width="3.699" height="4.043"/>
			<rect x="551.782" y="96.855" fill="#E6E7E8" width="16.945" height="2.064"/>
			<rect x="551.782" y="41.46" fill="#2191F2" width="3.699" height="4.043"/>
			<rect x="556.857" y="42.406" fill="#E6E7E8" width="16.945" height="2.064"/>
			<rect x="551.782" y="47.481" fill="#2191F2" width="3.699" height="4.043"/>
			<rect x="556.857" y="48.427" fill="#E6E7E8" width="23.397" height="2.064"/>
			<rect x="551.782" y="64.169" fill="#2191F2" width="3.699" height="4.043"/>
			<rect x="556.857" y="65.115" fill="#E6E7E8" width="28.472" height="2.064"/>
			<rect x="551.782" y="70.104" fill="#2191F2" width="3.699" height="4.043"/>
			<rect x="556.857" y="71.05" fill="#E6E7E8" width="19.268" height="2.064"/>
			<rect x="556.857" y="76.469" fill="#2191F2" width="2.925" height="3.183"/>
			<rect x="560.9" y="77.243" fill="#E6E7E8" width="31.654" height="1.634"/>
			<rect x="556.857" y="81.2" fill="#2191F2" width="2.925" height="3.183"/>
			<rect x="560.9" y="81.888" fill="#E6E7E8" width="19.354" height="1.634"/>
			<rect x="546.535" y="104.51" fill="#2191F2" width="3.699" height="4.043"/>
			<rect x="551.782" y="105.457" fill="#E6E7E8" width="16.945" height="2.064"/>
			<rect x="546.535" y="127.391" fill="#2191F2" width="3.699" height="4.043"/>
			<rect x="551.782" y="128.337" fill="#E6E7E8" width="16.945" height="2.064"/>
			<rect x="546.535" y="157.239" fill="#2191F2" width="3.699" height="4.043"/>
			<rect x="551.782" y="158.099" fill="#E6E7E8" width="16.945" height="2.064"/>
			<rect x="546.535" y="164.98" fill="#2191F2" width="3.699" height="4.043"/>
			<rect x="551.782" y="165.84" fill="#E6E7E8" width="16.945" height="2.064"/>
			<rect x="551.782" y="110.532" fill="#2191F2" width="3.699" height="4.043"/>
			<rect x="556.857" y="111.478" fill="#E6E7E8" width="16.945" height="2.064"/>
			<rect x="551.782" y="116.553" fill="#2191F2" width="3.699" height="4.043"/>
			<rect x="556.857" y="117.413" fill="#E6E7E8" width="23.397" height="2.064"/>
			<rect x="551.782" y="133.154" fill="#2191F2" width="3.699" height="4.043"/>
			<rect x="556.857" y="134.1" fill="#E6E7E8" width="28.472" height="2.064"/>
			<rect x="551.782" y="139.261" fill="#2191F2" width="3.699" height="4.043"/>
			<rect x="556.857" y="140.121" fill="#E6E7E8" width="19.268" height="2.064"/>
			<rect x="556.857" y="145.54" fill="#2191F2" width="2.925" height="3.183"/>
			<rect x="560.9" y="146.229" fill="#E6E7E8" width="31.654" height="1.634"/>
			<rect x="556.857" y="150.271" fill="#2191F2" width="2.925" height="3.183"/>
			<rect x="560.9" y="150.959" fill="#E6E7E8" width="19.354" height="1.634"/>
		</g>
		<g>
			<defs>
				<rect id="SVGID_1_" x="537.504" y="27.869" width="332.283" height="193.968"/>
			</defs>
			<clipPath id="SVGID_2_">
				<use xlink:href="#SVGID_1_"  overflow="visible"/>
			</clipPath>
			<g clip-path="url(#SVGID_2_)">
				<g>
					<path fill="#4F5569" d="M608.726,15.139L608.726,15.139c-0.774,0-1.548-0.688-1.548-1.634l0,0c0-0.946,0.602-1.634,1.548-1.634
						l0,0c0.774,0,1.548,0.688,1.548,1.634l0,0C610.274,14.279,609.5,15.139,608.726,15.139z"/>
					<rect x="614.661" y="11.784" fill="#F5AB35" width="18.236" height="3.355"/>
					<rect x="637.369" y="11.784" fill="#E4464A" width="33.116" height="3.355"/>
					<path fill="#4F5569" d="M608.726,24.859L608.726,24.859c-0.774,0-1.548-0.688-1.548-1.634l0,0c0-0.946,0.602-1.634,1.548-1.634
						l0,0c0.774,0,1.548,0.688,1.548,1.634l0,0C610.274,24.171,609.5,24.859,608.726,24.859z"/>
					<rect x="614.661" y="21.59" fill="#C2349A" width="45.245" height="3.355"/>
					<rect x="664.378" y="21.59" fill="#92C967" width="79.824" height="3.355"/>
					<path fill="#4F5569" d="M608.726,34.665L608.726,34.665c-0.774,0-1.548-0.688-1.548-1.634l0,0c0-0.946,0.602-1.634,1.548-1.634
						l0,0c0.774,0,1.548,0.688,1.548,1.634l0,0C610.274,33.891,609.5,34.665,608.726,34.665z"/>
					<rect x="614.661" y="31.31" fill="#C2349A" width="18.236" height="3.355"/>
					<path fill="#4F5569" d="M608.726,44.385L608.726,44.385c-0.774,0-1.548-0.688-1.548-1.634l0,0c0-0.946,0.602-1.634,1.548-1.634
						l0,0c0.774,0,1.548,0.688,1.548,1.634l0,0C610.274,43.697,609.5,44.385,608.726,44.385z"/>
					<rect x="614.661" y="41.116" fill="#E4464A" width="10.494" height="3.355"/>
					<rect x="629.714" y="41.116" fill="#FFFFFF" width="30.278" height="3.355"/>
					<path fill="#4F5569" d="M608.726,54.191L608.726,54.191c-0.774,0-1.548-0.688-1.548-1.634l0,0c0-0.946,0.602-1.634,1.548-1.634
						l0,0c0.774,0,1.548,0.688,1.548,1.634l0,0C610.274,53.502,609.5,54.191,608.726,54.191z"/>
					<rect x="623.779" y="50.836" fill="#FFFFFF" width="18.236" height="3.355"/>
					<rect x="646.487" y="50.836" fill="#0C97B3" width="39.998" height="3.355"/>
					<path fill="#4F5569" d="M608.726,63.996L608.726,63.996c-0.774,0-1.548-0.688-1.548-1.634l0,0c0-0.946,0.602-1.634,1.548-1.634
						l0,0c0.774,0,1.548,0.688,1.548,1.634l0,0C610.274,63.222,609.5,63.996,608.726,63.996z"/>
					<rect x="623.779" y="60.642" fill="#92C967" width="136.079" height="3.355"/>
					<rect x="765.362" y="60.642" fill="#F5AB35" width="18.322" height="3.355"/>
					<rect x="765.362" y="60.384" fill="#F5AB35" width="18.322" height="3.355"/>
					<path fill="#4F5569" d="M608.726,73.802L608.726,73.802c-0.774,0-1.548-0.688-1.548-1.634l0,0c0-0.946,0.602-1.634,1.548-1.634
						l0,0c0.774,0,1.548,0.688,1.548,1.634l0,0C610.274,73.028,609.5,73.802,608.726,73.802z"/>
					<rect x="634.273" y="70.448" fill="#0C97B3" width="187.517" height="3.355"/>
					<path fill="#4F5569" d="M608.726,83.608L608.726,83.608c-0.774,0-1.548-0.688-1.548-1.634l0,0c0-0.946,0.602-1.634,1.548-1.634
						l0,0c0.774,0,1.548,0.688,1.548,1.634l0,0C610.274,82.748,609.5,83.608,608.726,83.608z"/>
					<rect x="634.273" y="80.254" fill="#0C97B3" width="113.198" height="3.355"/>
					<rect x="752.288" y="80.254" fill="#92C967" width="31.482" height="3.355"/>
					<path fill="#4F5569" d="M608.726,93.328L608.726,93.328c-0.774,0-1.548-0.688-1.548-1.634l0,0c0-0.946,0.602-1.634,1.548-1.634
						l0,0c0.774,0,1.548,0.688,1.548,1.634l0,0C610.274,92.64,609.5,93.328,608.726,93.328z"/>
					<rect x="623.779" y="90.06" fill="#E4464A" width="10.494" height="3.355"/>
					<path fill="#4F5569" d="M608.726,102.962L608.726,102.962c-0.774,0-1.548-0.688-1.548-1.634l0,0
						c0-0.946,0.602-1.634,1.548-1.634l0,0c0.774,0,1.548,0.688,1.548,1.634l0,0C610.274,102.274,609.5,102.962,608.726,102.962z"/>
					<rect x="623.779" y="99.693" fill="#FFFFFF" width="18.236" height="3.355"/>
					<rect x="646.487" y="99.693" fill="#0C97B3" width="39.998" height="3.355"/>
					<path fill="#4F5569" d="M608.726,112.768L608.726,112.768c-0.774,0-1.548-0.688-1.548-1.634l0,0
						c0-0.946,0.602-1.634,1.548-1.634l0,0c0.774,0,1.548,0.688,1.548,1.634l0,0C610.274,112.08,609.5,112.768,608.726,112.768z"/>
					<rect x="623.779" y="109.413" fill="#92C967" width="136.079" height="3.355"/>
					<rect x="765.362" y="109.413" fill="#F5AB35" width="18.322" height="3.355"/>
					<rect x="765.362" y="109.155" fill="#F5AB35" width="18.322" height="3.355"/>
					<path fill="#4F5569" d="M608.726,122.488L608.726,122.488c-0.774,0-1.548-0.688-1.548-1.634l0,0
						c0-0.946,0.602-1.634,1.548-1.634l0,0c0.774,0,1.548,0.688,1.548,1.634l0,0C610.274,121.8,609.5,122.488,608.726,122.488z"/>
					<rect x="634.273" y="119.219" fill="#E4464A" width="187.517" height="3.355"/>
					<path fill="#4F5569" d="M608.726,132.38L608.726,132.38c-0.774,0-1.548-0.688-1.548-1.634l0,0c0-0.946,0.602-1.634,1.548-1.634
						l0,0c0.774,0,1.548,0.688,1.548,1.634l0,0C610.274,131.606,609.5,132.38,608.726,132.38z"/>
					<rect x="634.273" y="129.025" fill="#0C97B3" width="33.719" height="3.355"/>
					<rect x="673.926" y="129.025" fill="#FFFFFF" width="73.458" height="3.355"/>
					<rect x="752.288" y="129.025" fill="#92C967" width="31.482" height="3.355"/>
					<path fill="#4F5569" d="M608.726,142.186L608.726,142.186c-0.774,0-1.548-0.688-1.548-1.634l0,0
						c0-0.946,0.602-1.634,1.548-1.634l0,0c0.774,0,1.548,0.688,1.548,1.634l0,0C610.274,141.326,609.5,142.186,608.726,142.186z"/>
					<rect x="623.779" y="138.831" fill="#F5AB35" width="10.494" height="3.355"/>
					<path fill="#4F5569" d="M608.726,151.82L608.726,151.82c-0.774,0-1.548-0.688-1.548-1.634l0,0c0-0.946,0.602-1.634,1.548-1.634
						l0,0c0.774,0,1.548,0.688,1.548,1.634l0,0C610.274,151.045,609.5,151.82,608.726,151.82z"/>
					<rect x="623.779" y="148.465" fill="#FFFFFF" width="18.236" height="3.355"/>
					<rect x="646.487" y="148.465" fill="#0C97B3" width="39.998" height="3.355"/>
					<path fill="#4F5569" d="M608.726,161.539L608.726,161.539c-0.774,0-1.548-0.688-1.548-1.634l0,0
						c0-0.946,0.602-1.634,1.548-1.634l0,0c0.774,0,1.548,0.688,1.548,1.634l0,0C610.274,160.851,609.5,161.539,608.726,161.539z"/>
					<rect x="623.779" y="158.271" fill="#92C967" width="136.079" height="3.355"/>
					<rect x="765.362" y="158.271" fill="#F5AB35" width="18.322" height="3.355"/>
					<rect x="765.362" y="157.927" fill="#92C967" width="18.322" height="3.355"/>
					<path fill="#4F5569" d="M608.726,171.345L608.726,171.345c-0.774,0-1.548-0.688-1.548-1.634l0,0
						c0-0.946,0.602-1.634,1.548-1.634l0,0c0.774,0,1.548,0.688,1.548,1.634l0,0C610.274,170.657,609.5,171.345,608.726,171.345z"/>
					<rect x="634.273" y="167.991" fill="#0C97B3" width="187.517" height="3.355"/>
					<path fill="#4F5569" d="M608.726,181.065L608.726,181.065c-0.774,0-1.548-0.688-1.548-1.634l0,0
						c0-0.946,0.602-1.634,1.548-1.634l0,0c0.774,0,1.548,0.688,1.548,1.634l0,0C610.274,180.377,609.5,181.065,608.726,181.065z"/>
					<rect x="634.273" y="177.797" fill="#FFFFFF" width="113.198" height="3.355"/>
					<rect x="752.288" y="177.797" fill="#E4464A" width="31.482" height="3.355"/>
					<rect x="790.221" y="177.797" fill="#FFFFFF" width="31.482" height="3.355"/>
					<path fill="#4F5569" d="M608.726,190.871L608.726,190.871c-0.774,0-1.548-0.688-1.548-1.634l0,0
						c0-0.946,0.602-1.634,1.548-1.634l0,0c0.774,0,1.548,0.688,1.548,1.634l0,0C610.274,190.183,609.5,190.871,608.726,190.871z"/>
					<rect x="623.779" y="187.517" fill="#F5AB35" width="10.494" height="3.355"/>
				</g>
				<g>
					<path fill="#4F5569" d="M608.432,200.308L608.432,200.308c-0.774,0-1.548-0.688-1.548-1.634l0,0
						c0-0.946,0.602-1.634,1.548-1.634l0,0c0.774,0,1.548,0.688,1.548,1.634l0,0C609.98,199.448,609.206,200.308,608.432,200.308z"
						/>
					<rect x="614.367" y="196.954" fill="#F5AB35" width="18.236" height="3.355"/>
					<rect x="637.076" y="196.954" fill="#E4464A" width="33.116" height="3.355"/>
					<path fill="#4F5569" d="M608.432,210.028L608.432,210.028c-0.774,0-1.548-0.688-1.548-1.634l0,0
						c0-0.946,0.602-1.634,1.548-1.634l0,0c0.774,0,1.548,0.688,1.548,1.634l0,0C609.98,209.34,609.206,210.028,608.432,210.028z"/>
					<rect x="614.367" y="206.76" fill="#C2349A" width="45.245" height="3.355"/>
					<rect x="664.085" y="206.76" fill="#92C967" width="79.824" height="3.355"/>
					<path fill="#4F5569" d="M608.432,219.834L608.432,219.834c-0.774,0-1.548-0.688-1.548-1.634l0,0
						c0-0.946,0.602-1.634,1.548-1.634l0,0c0.774,0,1.548,0.688,1.548,1.634l0,0C609.98,219.06,609.206,219.834,608.432,219.834z"/>
					<rect x="614.367" y="216.479" fill="#C2349A" width="18.236" height="3.355"/>
					<path fill="#4F5569" d="M608.432,229.554L608.432,229.554c-0.774,0-1.548-0.688-1.548-1.634l0,0
						c0-0.946,0.602-1.634,1.548-1.634l0,0c0.774,0,1.548,0.688,1.548,1.634l0,0C609.98,228.866,609.206,229.554,608.432,229.554z"
						/>
					<rect x="614.367" y="226.285" fill="#E4464A" width="10.494" height="3.355"/>
					<rect x="629.42" y="226.285" fill="#FFFFFF" width="30.278" height="3.355"/>
					<path fill="#4F5569" d="M608.432,239.36L608.432,239.36c-0.774,0-1.548-0.688-1.548-1.634l0,0c0-0.946,0.602-1.634,1.548-1.634
						l0,0c0.774,0,1.548,0.688,1.548,1.634l0,0C609.98,238.672,609.206,239.36,608.432,239.36z"/>
					<rect x="623.485" y="236.005" fill="#FFFFFF" width="18.236" height="3.355"/>
					<rect x="646.193" y="236.005" fill="#0C97B3" width="39.998" height="3.355"/>
					<path fill="#4F5569" d="M608.432,249.166L608.432,249.166c-0.774,0-1.548-0.688-1.548-1.634l0,0
						c0-0.946,0.602-1.634,1.548-1.634l0,0c0.774,0,1.548,0.688,1.548,1.634l0,0C609.98,248.392,609.206,249.166,608.432,249.166z"
						/>
					<rect x="623.485" y="245.811" fill="#92C967" width="136.079" height="3.355"/>
					<rect x="765.069" y="245.811" fill="#F5AB35" width="18.322" height="3.355"/>
					<rect x="765.069" y="245.553" fill="#F5AB35" width="18.322" height="3.355"/>
					<path fill="#4F5569" d="M608.432,258.972L608.432,258.972c-0.774,0-1.548-0.688-1.548-1.634l0,0
						c0-0.946,0.602-1.634,1.548-1.634l0,0c0.774,0,1.548,0.688,1.548,1.634l0,0C609.98,258.198,609.206,258.972,608.432,258.972z"
						/>
					<rect x="633.979" y="255.617" fill="#0C97B3" width="187.517" height="3.355"/>
					<path fill="#4F5569" d="M608.432,268.778L608.432,268.778c-0.774,0-1.548-0.688-1.548-1.634l0,0
						c0-0.946,0.602-1.634,1.548-1.634l0,0c0.774,0,1.548,0.688,1.548,1.634l0,0C609.98,267.917,609.206,268.778,608.432,268.778z"
						/>
					<rect x="633.979" y="265.423" fill="#0C97B3" width="113.198" height="3.355"/>
					<rect x="751.994" y="265.423" fill="#92C967" width="31.482" height="3.355"/>
					<path fill="#4F5569" d="M608.432,278.497L608.432,278.497c-0.774,0-1.548-0.688-1.548-1.634l0,0
						c0-0.946,0.602-1.634,1.548-1.634l0,0c0.774,0,1.548,0.688,1.548,1.634l0,0C609.98,277.809,609.206,278.497,608.432,278.497z"
						/>
					<rect x="623.485" y="275.229" fill="#E4464A" width="10.494" height="3.355"/>
					<path fill="#4F5569" d="M608.432,288.131L608.432,288.131c-0.774,0-1.548-0.688-1.548-1.634l0,0
						c0-0.946,0.602-1.634,1.548-1.634l0,0c0.774,0,1.548,0.688,1.548,1.634l0,0C609.98,287.443,609.206,288.131,608.432,288.131z"
						/>
					<rect x="623.485" y="284.863" fill="#FFFFFF" width="18.236" height="3.355"/>
					<rect x="646.193" y="284.863" fill="#0C97B3" width="39.998" height="3.355"/>
					<path fill="#4F5569" d="M608.432,297.937L608.432,297.937c-0.774,0-1.548-0.688-1.548-1.634l0,0
						c0-0.946,0.602-1.634,1.548-1.634l0,0c0.774,0,1.548,0.688,1.548,1.634l0,0C609.98,297.249,609.206,297.937,608.432,297.937z"
						/>
					<rect x="623.485" y="294.583" fill="#92C967" width="136.079" height="3.355"/>
					<rect x="765.069" y="294.583" fill="#F5AB35" width="18.322" height="3.355"/>
					<rect x="765.069" y="294.325" fill="#F5AB35" width="18.322" height="3.355"/>
					<path fill="#4F5569" d="M608.432,307.657L608.432,307.657c-0.774,0-1.548-0.688-1.548-1.634l0,0
						c0-0.946,0.602-1.634,1.548-1.634l0,0c0.774,0,1.548,0.688,1.548,1.634l0,0C609.98,306.969,609.206,307.657,608.432,307.657z"
						/>
					<rect x="633.979" y="304.389" fill="#E4464A" width="187.517" height="3.355"/>
					<path fill="#4F5569" d="M608.432,317.549L608.432,317.549c-0.774,0-1.548-0.688-1.548-1.634l0,0
						c0-0.946,0.602-1.634,1.548-1.634l0,0c0.774,0,1.548,0.688,1.548,1.634l0,0C609.98,316.775,609.206,317.549,608.432,317.549z"
						/>
					<rect x="633.979" y="314.194" fill="#0C97B3" width="33.719" height="3.355"/>
					<rect x="673.633" y="314.194" fill="#FFFFFF" width="73.458" height="3.355"/>
					<rect x="751.994" y="314.194" fill="#92C967" width="31.482" height="3.355"/>
					<path fill="#4F5569" d="M608.432,327.355L608.432,327.355c-0.774,0-1.548-0.688-1.548-1.634l0,0
						c0-0.946,0.602-1.634,1.548-1.634l0,0c0.774,0,1.548,0.688,1.548,1.634l0,0C609.98,326.495,609.206,327.355,608.432,327.355z"
						/>
					<rect x="623.485" y="324" fill="#F5AB35" width="10.494" height="3.355"/>
					<path fill="#4F5569" d="M608.432,336.989L608.432,336.989c-0.774,0-1.548-0.688-1.548-1.634l0,0
						c0-0.946,0.602-1.634,1.548-1.634l0,0c0.774,0,1.548,0.688,1.548,1.634l0,0C609.98,336.215,609.206,336.989,608.432,336.989z"
						/>
					<rect x="623.485" y="333.634" fill="#FFFFFF" width="18.236" height="3.355"/>
					<rect x="646.193" y="333.634" fill="#0C97B3" width="39.998" height="3.355"/>
					<path fill="#4F5569" d="M608.432,346.709L608.432,346.709c-0.774,0-1.548-0.688-1.548-1.634l0,0
						c0-0.946,0.602-1.634,1.548-1.634l0,0c0.774,0,1.548,0.688,1.548,1.634l0,0C609.98,346.021,609.206,346.709,608.432,346.709z"
						/>
					<rect x="623.485" y="343.44" fill="#92C967" width="136.079" height="3.355"/>
					<rect x="765.069" y="343.44" fill="#F5AB35" width="18.322" height="3.355"/>
					<rect x="765.069" y="343.096" fill="#92C967" width="18.322" height="3.355"/>
					<path fill="#4F5569" d="M608.432,356.515L608.432,356.515c-0.774,0-1.548-0.688-1.548-1.634l0,0
						c0-0.946,0.602-1.634,1.548-1.634l0,0c0.774,0,1.548,0.688,1.548,1.634l0,0C609.98,355.827,609.206,356.515,608.432,356.515z"
						/>
					<rect x="633.979" y="353.16" fill="#0C97B3" width="187.517" height="3.355"/>
					<path fill="#4F5569" d="M608.432,366.235L608.432,366.235c-0.774,0-1.548-0.688-1.548-1.634l0,0
						c0-0.946,0.602-1.634,1.548-1.634l0,0c0.774,0,1.548,0.688,1.548,1.634l0,0C609.98,365.546,609.206,366.235,608.432,366.235z"
						/>
					<rect x="633.979" y="362.966" fill="#FFFFFF" width="113.198" height="3.355"/>
					<rect x="751.994" y="362.966" fill="#E4464A" width="31.482" height="3.355"/>
					<rect x="789.927" y="362.966" fill="#FFFFFF" width="31.482" height="3.355"/>
					<path fill="#4F5569" d="M608.432,376.04L608.432,376.04c-0.774,0-1.548-0.688-1.548-1.634l0,0c0-0.946,0.602-1.634,1.548-1.634
						l0,0c0.774,0,1.548,0.688,1.548,1.634l0,0C609.98,375.352,609.206,376.04,608.432,376.04z"/>
					<rect x="623.485" y="372.686" fill="#F5AB35" width="10.494" height="3.355"/>
				</g>
			</g>
		</g>
		<g>
			<rect x="537.504" y="15.053" fill="#3D2F75" width="332.283" height="12.816"/>
			<path fill="#FFC440" d="M854.131,21.504c0,1.032-0.774,1.892-1.634,1.892c-0.946,0-1.634-0.86-1.634-1.892
				s0.774-1.892,1.634-1.892C853.357,19.612,854.131,20.472,854.131,21.504z"/>
			<path fill="#56C356" d="M859.378,21.504c0,1.032-0.774,1.892-1.634,1.892s-1.634-0.86-1.634-1.892s0.774-1.892,1.634-1.892
				S859.378,20.472,859.378,21.504z"/>
			<path fill="#FF5168" d="M864.539,21.504c0,1.032-0.774,1.892-1.634,1.892c-0.946,0-1.634-0.86-1.634-1.892
				s0.774-1.892,1.634-1.892C863.765,19.612,864.539,20.472,864.539,21.504z"/>
		</g>
	</g>
</g>
<g id="Lapices">
	<g>
		<path fill="#B75E5C" d="M918.892,206.87l1.72,0.086c0.258,0,0.516,0.258,0.516,0.43l-0.172,1.462l-2.667-0.258l0.172-1.462
			C918.29,206.956,918.548,206.87,918.892,206.87z"/>
		<polygon fill="#D89339" points="920.526,212.117 917.516,211.859 912.097,251.599 915.193,251.599 		"/>
		<polygon fill="#F99D30" points="919.838,212.031 918.204,211.945 912.871,251.599 914.505,251.599 		"/>
		<polygon fill="#7A8084" points="921.042,208.763 917.86,208.505 917.172,213.408 920.354,213.666 		"/>
		<polygon fill="#909CA3" points="918.204,208.591 917.774,213.494 919.064,213.666 919.752,208.677 		"/>
		<path fill="#ACC2CC" d="M918.462,208.591c-0.172,1.118-0.516,4.129-0.602,4.989l0.946,0.086c0.172-1.204,0.516-3.871,0.602-4.989
			L918.462,208.591z"/>
		<path fill="#DB6B6B" d="M919.752,207.042c-0.344,0.086-0.258,1.548-0.344,1.462c-0.086,0-0.86-0.086-0.86-0.086
			c-0.086,0,0-0.946,0.172-1.204c0.172-0.258,0.172-0.344,0.43-0.258C919.494,207.042,919.752,207.042,919.752,207.042z"/>
	</g>
	<g>
		<path fill="#B75E5C" d="M913.645,208.333l1.72,0.086c0.258,0,0.516,0.172,0.43,0.43l-0.172,1.462l-2.667-0.172l0.172-1.462
			C913.043,208.419,913.301,208.247,913.645,208.333z"/>
		<polygon fill="#175CAD" points="915.107,213.494 912.183,213.236 906.419,251.599 909.43,251.599 		"/>
		<polygon fill="#0F86E8" points="914.419,213.408 912.871,213.322 907.108,251.599 908.742,251.599 		"/>
		<polygon fill="#7A8084" points="915.795,210.139 912.613,209.967 911.839,214.87 915.021,215.128 		"/>
		<polygon fill="#909CA3" points="912.957,209.967 912.355,214.956 913.731,215.042 914.505,210.053 		"/>
		<path fill="#ACC2CC" d="M913.129,209.967c-0.172,1.118-0.516,4.043-0.602,4.989l0.946,0.086c0.172-1.204,0.516-3.871,0.688-4.989
			L913.129,209.967z"/>
		<path fill="#DB6B6B" d="M914.505,208.505c-0.344,0-0.344,1.462-0.43,1.462c-0.086,0-0.86-0.086-0.86-0.086
			c-0.086,0,0-0.946,0.172-1.204c0.172-0.172,0.086-0.344,0.43-0.258C914.247,208.419,914.505,208.505,914.505,208.505z"/>
	</g>
	<g>
		<path fill="#B75E5C" d="M908.054,211.515l1.72,0.172c0.258,0,0.516,0.258,0.43,0.43l-0.172,1.462l-2.667-0.258l0.172-1.462
			C907.452,211.601,907.71,211.515,908.054,211.515z"/>
		<polygon fill="#B23F20" points="910.462,211.171 907.452,210.913 901.172,251.599 904.269,251.599 		"/>
		<polygon fill="#CC3A17" points="909.688,211.085 908.14,210.913 901.861,251.599 903.495,251.599 		"/>
		<polygon fill="#7A8084" points="910.118,213.408 907.022,213.15 906.247,218.053 909.43,218.311 		"/>
		<polygon fill="#909CA3" points="907.366,213.15 906.764,218.139 908.14,218.311 908.914,213.322 		"/>
		<path fill="#ACC2CC" d="M907.624,213.236c-0.172,1.118-0.602,4.129-0.602,4.989l0.946,0.086c0.172-1.204,0.602-3.871,0.774-4.989
			L907.624,213.236z"/>
		<path fill="#DB6B6B" d="M909,211.687c-0.344,0.086-0.344,1.548-0.344,1.462c-0.086,0-0.86-0.086-0.86-0.086
			c-0.086,0,0-0.946,0.172-1.204c0.172-0.258,0.172-0.344,0.43-0.258C908.656,211.601,909,211.687,909,211.687z"/>
	</g>
</g>
<g id="Cabeza">
	<path id="headCoding" fill="#D3865F" d="M540.29,170.067c8.393-1.004,11.677-0.912,15.6-2.737c4.014-1.825,4.835-14.779,5.2-20.436
		c0.365-5.656,0.365-10.948,2.372-13.046s2.646-2.737,0-7.572c-2.646-4.744-1.642-13.046-0.73-16.513
		c0.821-3.467,0.365-11.221-3.284-18.885c-3.649-7.663-4.014-12.042-12.407-18.337c-8.302-6.386-53.005,4.379-60.394,12.863
		c-7.39,8.484-18.976,25.362-15.874,37.222c3.102,11.86,5.656,18.793,6.295,25.818C477.797,155.471,540.29,170.067,540.29,170.067z"
		/>
	<path id="headCoding_1_" fill="#231F20" d="M547.041,125.091c0.365,0,0.639-0.274,0.547-0.456
		c-0.456-2.372-1.642-7.481,1.551-11.221c3.467-4.014,2.646-6.477,1.095-9.397c-1.551-2.919,0.182-6.295-0.274-7.846
		c-0.547-1.551,2.281-0.182,3.832-0.091c1.551,0.182,15.327-8.941,14.141-18.52c-1.277-9.579-17.972-11.313-19.979-9.67
		c-2.007,1.551-8.302,0-14.323-0.912c-6.021-0.912-7.846-1.825-10.035-0.182c-2.098,1.642-10.218-0.912-11.039,0.547
		c-0.912,1.368-9.853-0.821-9.123,1.095s-10.035,2.007-13.32,3.467c-3.376,1.46-11.404,0.639-11.404,2.372s-3.649,0.182-7.39,5.383
		s-8.758,7.207-7.755,11.495c1.004,4.288,1.186,2.737-0.274,9.67c-1.46,6.934-1.551,6.66-0.547,10.035
		c0.912,3.376,2.098,9.853,4.47,12.316c2.281,2.372,0.73,3.376,3.923,8.576c3.102,5.2,4.926,16.786,7.207,19.25
		s32.387-2.919,32.387-2.919c5.656-4.379,8.484-8.211,9.944-13.228c1.46-5.018,2.281-3.832,2.919-9.853
		c0.639-6.112,2.19-14.962,7.298-13.867c3.467,0.73,6.112,2.007,10.856,14.141c0.091,0.182,0.456,0.274,0.639,0.274L547.041,125.091
		z"/>
	<path id="headCoding_2_" fill="#231F20" d="M559.266,110.22c1.368-1.46,3.284-4.47,3.467-6.295c0.091-1.825,1.46-1.551,2.919,0.182
		c1.46,1.733-2.828,7.937-5.291,7.937C557.806,112.045,557.35,112.136,559.266,110.22z"/>
	<path id="headCoding_3_" fill="#AD582D" d="M534.908,130.382c-1.186-0.821-2.554-2.554-3.102-4.379
		c-0.547-1.825,0.456-2.372,1.46-0.912c1.004,1.551,0.73,1.825,1.916,2.919C536.458,129.105,537.371,132.116,534.908,130.382z"/>
	<path id="headCoding_4_" fill="#AD582D" d="M531.897,122.536c0.091-2.463,1.277-1.733,0.912-2.919
		c-0.365-1.186-2.19-0.091-2.281-1.642c-0.091-1.551,0.365-3.923,2.372-2.828c2.098,1.095,1.642,1.642,1.186,3.284
		c-0.456,1.642,0.365,1.733-0.456,2.554C532.901,121.807,531.897,122.536,531.897,122.536z"/>
	<path id="headCoding_5_" fill="#AD582D" d="M527.974,115.238c-1.368,2.098-3.832,5.565-3.193,11.586s2.737,8.484,4.197,10.309
		c1.46,1.825,2.098,1.733,4.926,1.642c2.919-0.091,4.197,1.004,4.197,1.004s0.821-1.368-1.551-1.916
		c-2.372-0.547-3.923-0.182-6.386-3.102c-2.463-3.011-2.463-7.116-3.467-9.944c-0.912-2.828-0.274-4.926,0.091-6.295
		C527.153,117.154,527.974,115.238,527.974,115.238z"/>
</g>
<g id="Pierna_D">
	<g>
		<path fill="#11100C" d="M633.892,522.125c6.569-4.105,13.776-3.102,18.337,15.783c4.562,18.885-2.828,28.464-7.755,32.387
			c-4.926,3.923-7.846,9.853-8.849,15.144c-1.095,5.383-9.214,12.316-21.804,9.67c-12.59-2.554-15.692-6.842-14.232-14.141
			c1.46-7.39,1.277-19.614,4.562-23.811C607.344,553.052,633.892,522.125,633.892,522.125z"/>
		<path fill="#2D2A1F" d="M644.749,525.409c1.551,2.463,5.747,14.232,5.839,23.081c0.182,8.758-4.379,9.853-5.747,8.484
			c-1.46-1.368,0.639-9.762,0.182-14.779c-0.456-5.018-0.912-12.863-1.825-15.509C642.377,524.132,643.563,523.493,644.749,525.409z
			"/>
		<path fill="#27435B" d="M526.149,384.914l49.355-0.274c18.064,5.2,34.029,15.327,42.148,39.503s5.2,27.46,12.134,38.134
			c6.933,10.674,5.2,31.383,7.663,41.875c2.463,10.583,7.116,27.916,5.93,39.229c-1.277,11.221-4.562,17.06-13.411,23.902
			c-8.758,6.842-14.779,4.47-21.53,0.821c-6.751-3.558-12.772-10.035-12.955-18.337c-0.091-8.302-5.291-22.534-9.214-32.387
			c-3.923-9.67-5.93-18.976-6.112-24.997c-0.091-6.112-35.124-32.296-49.082-30.471l-19.706-36.766L526.149,384.914z"/>
		<path fill="#275475" d="M595.484,395.497c2.554,2.463,13.228,10.491,16.969,20.436c3.74,9.853,5.018,15.783,6.66,20.892
			c1.642,5.2-6.386-5.474-7.937-3.923c-1.551,1.551,1.004-6.386-3.284-10.491c-4.288-4.105-4.562-6.021-5.93-9.853
			C600.593,408.726,595.484,395.497,595.484,395.497z"/>
		<path fill="#275475" d="M623.857,457.078c2.281,6.569,6.295,6.66,7.207,13.502c0.912,6.751,1.551,22.534,3.74,33.025
			c2.19,10.491,6.204,18.064,7.025,29.285s-1.916,18.337-6.021,21.074c-4.105,2.737-14.87,6.842-15.053-1.277
			c-0.091-8.12,12.316-10.4,5.565-21.622c-6.66-11.221-18.246-20.8-13.411-32.113c4.835-11.313,1.46-8.758,5.109-19.341
			c3.558-10.674,11.495-17.243,4.288-12.499c-7.025,4.835-14.506,10.127-8.393,1.004
			C619.934,459.085,622.032,452.06,623.857,457.078z"/>
	</g>
</g>
<g id="Pierna_I">
	<g>
		<path fill="#11100C" d="M376.714,552.504c3.74,5.565,7.39,19.888,6.295,24.176c-1.095,4.197-14.506,12.59-25.636,9.853
			c-11.13-2.646-13.411-16.969-16.239-22.26c-2.919-5.291-15.6-13.046-16.33-26.366c-0.821-13.32,3.649-27.916,10.856-33.208
			c7.207-5.2,12.59-0.547,15.6,6.842C354.272,519.023,376.714,552.504,376.714,552.504z"/>
		<path fill="#2D2A1F" d="M338.307,509.444c-5.383,4.47-8.849,17.516-8.119,25.271c0.73,7.663,1.368-2.554,4.926-8.028
			c3.649-5.565,6.021-10.4,5.93-14.232C341.043,508.623,338.307,509.444,338.307,509.444z"/>
		<path fill="#27435B" d="M464.204,464.467c-27.552,2.281-58.935,7.572-59.391,15.692c-1.095,17.334-9.032,36.401-13.32,42.969
			c-4.288,6.569-6.021,13.685-5.93,21.074c0.091,7.39-10.948,18.064-21.622,19.706c-10.583,1.642-17.881,3.923-27.095-9.853
			c-9.123-13.867-0.639-23.902,2.463-30.653c3.102-6.751,4.653-23.629,6.477-36.31c1.825-12.681,8.119-26.822,11.769-36.036
			c3.74-9.214,8.119-24.085,15.6-37.404c7.39-13.32,21.804-25.18,39.503-26.73c5.656-0.547,46.71-1.277,46.71-1.277l25.362,47.166
			L464.204,464.467z"/>
		<path fill="#275475" d="M337.394,533.893c2.737,10.127,5.018,14.049,4.835,6.66c-0.091-7.39-2.281-14.049,1.551-8.302
			c3.832,5.747,7.025,1.368,5.656-7.663c-1.368-9.032,0.091-13.867,3.649-19.341c3.649-5.383,9.032-19.523,7.663-30.562
			c-1.368-11.039-4.197-22.808,1.186-13.32c5.383,9.488,0.091-6.751,4.562-12.407c4.47-5.656-0.547-15.235,7.572-22.078
			c8.211-6.842,14.962-11.769,18.52-13.867c3.558-2.098,3.74-13.046,7.937-17.334c4.197-4.379-3.011-5.2-15.144,5.474
			c-12.134,10.674-18.337,27.095-20.071,34.394c-1.733,7.298-0.182,16.878-1.825,14.141c-1.642-2.646-4.926-1.095-4.926,2.098
			c0.091,3.193-6.386,13.776-8.667,24.541c-2.372,10.765-5.109,24.176-4.926,35.945c0.182,11.769,0.547,15.874-0.912,12.955
			s-4.197-2.281-4.197,1.186C339.949,530.062,337.394,533.893,337.394,533.893z"/>
	</g>
</g>
<g id="Hombre_1_">
	<g>
		<path fill="#D3865F" d="M669.198,280.73c-3.011-3.558-8.849-6.751-9.579-11.951c-0.73-5.2-5.93-10.218-11.677-10.948
			c-5.747-0.73-12.316-1.642-13.32,0.912c-0.912,2.463,15.692,19.25,22.078,22.443S669.198,280.73,669.198,280.73z"/>
		<path fill="#1A2233" d="M617.471,613.172c0.091,4.47-51.819,8.849-115.862,9.944s-116.045-1.733-116.136-6.112
			c-0.091-4.47,51.636-16.695,115.771-17.699C565.287,598.211,617.471,608.702,617.471,613.172z"/>
		<g>
			<path fill="#1A2233" d="M516.114,572.94l0.456,27.734c0,0.274-0.639,1.277-3.558,2.098c-2.007,0.639-5.291,1.186-10.218,1.277
				c-0.274,0-0.365,0-0.639,0c-12.407,0.182-16.056-2.007-16.056-2.737l-0.456-28.099c0-1.186,9.397-4.653,9.397-4.653l12.59-0.182
				C512.465,570.385,516.023,570.203,516.114,572.94z"/>
			<path fill="#38455B" d="M512.647,580.329c-0.73,1.916,0.639,16.33,0.274,22.443c-2.007,0.639-5.291,1.186-10.218,1.277
				c0-5.383,1.004-16.604-1.186-21.622c-2.737-6.386-9.305-4.379-15.418-7.846c-0.274-0.182-0.456-0.274-0.639-0.365v-0.821
				c0-1.186,9.397-4.653,9.397-4.653l12.59-0.182c5.018,2.007,8.667,1.733,8.667,4.561v2.646
				C514.563,577.41,513.104,578.961,512.647,580.329z"/>
			<path fill="#1A2233" d="M513.195,555.789l0.274,16.604c0,0.182-0.547,1.003-2.919,1.733c-1.368,0.456-3.558,0.912-6.569,1.003
				c-0.821,0-1.642,0.091-2.554,0.091c-10.218,0.182-13.32-1.642-13.32-2.281l-0.274-16.878c0-0.182,0.182-0.365,0.547-0.547
				c1.733-1.277,7.207-3.193,7.207-3.193l10.4-0.182c4.014,1.642,7.025,1.46,7.207,3.558
				C513.195,555.697,513.195,555.789,513.195,555.789z"/>
			<path fill="#38455B" d="M510.549,574.126c-1.368,0.456-3.558,0.912-6.569,1.003c-0.365-4.653-1.368-16.878-3.376-17.334
				c-2.463-0.547-9.853-0.091-12.225-2.281c1.733-1.277,7.207-3.193,7.207-3.193l10.4-0.182c4.014,1.642,7.025,1.46,7.207,3.558
				c-0.912,1.095-1.825,2.098-2.919,3.193C508.542,560.441,510.823,570.294,510.549,574.126z"/>
			<path fill="#9FA5AA" d="M506.17,493.022l1.004,60.029c0,0-0.365,0.274-1.368,0.547c-0.912,0.274-2.372,0.456-4.47,0.456
				c-1.095,0-2.007-0.091-2.737,0c-2.554-0.182-3.558-0.639-3.558-0.639l-1.004-60.029L506.17,493.022L506.17,493.022z"/>
			<path fill="#B3C0C9" d="M504.802,493.022l1.004,60.577c-0.912,0.274-2.372,0.456-4.47,0.456c-1.095,0-2.007-0.091-2.737,0
				l-1.004-60.759L504.802,493.022L504.802,493.022z"/>
		</g>
		<g>
			<path fill="#0D131E" d="M536.002,501.78c2.554,0,35.397,9.123,35.397,9.123v2.281c0,0,6.477,1.825,10.218,0.456
				c3.558-1.277,7.937-0.091,12.042,0.821c4.105,0.821,4.653,0.912,3.649-2.098c-1.003-3.011-22.899-6.933-23.993-6.933
				c-1.004,0-0.912,1.825-0.912,1.825l-31.839-8.393L536.002,501.78z"/>
			<path fill="#BECFD3" d="M584.719,381.904c-2.19,4.288-4.47,6.842,3.558,13.685c8.028,6.751,9.944,8.302,9.488,16.239
				s-10.035,21.257-8.941,28.008c1.095,6.66-10.948,11.677-21.257,14.232c-10.309,2.554-34.941,2.828-50.542,3.102
				c-15.6,0.274-45.98,1.277-62.128,0c-16.148-1.186-25.088,0.912-37.769,0.73c-12.681-0.182-16.969-13.685-18.976-24.267
				c-2.007-10.583-5.018-22.625-0.456-30.106c4.562-7.481,4.926-4.653,7.846-11.039c2.828-6.477,3.558-5.839,5.383-14.597
				c1.825-8.758,0.091-19.341-2.554-26.457c-2.646-7.025-11.586-19.797-10.4-30.562c1.186-10.674,3.193-15.692,2.007-22.899
				c-1.095-7.298-5.2-19.979-5.2-19.979s-6.751,2.828-7.207,10.127c-0.365,7.298-7.207,5.383-15.418,12.863
				c-8.12,7.572-18.976,8.758-23.994,7.39c-4.926-1.368-17.79,0-22.26-4.197c-4.379-4.288-6.477-17.516-3.923-26.913
				c2.554-9.397,3.011-15.053,9.123-21.348c6.112-6.295,16.878-8.393,18.611-10.218s3.193-6.66,8.941-11.221
				c5.839-4.562,6.386-3.74,8.849-9.762s14.141-18.885,22.99-25.453s2.372-7.846,18.155-13.046
				c15.783-5.2,12.042-0.365,22.351-7.025c10.309-6.66,25.909-8.028,30.653-11.951c4.744-3.832,6.112-9.853,10.674-14.688
				c4.653-4.835,20.071-8.758,39.32-3.558c19.25,5.291,31.109,15.053,34.667,17.607c3.558,2.463,2.828,9.305,2.828,9.305
				s2.646,8.758,14.779,12.772c12.134,4.105,17.242,11.495,25.088,11.404c7.755-0.091,19.341,11.039,26.639,18.155
				c7.298,7.116,14.506,16.421,16.513,23.629c2.007,7.116,0.091,11.039,6.204,13.867c6.112,2.646,2.554,5.2,6.477,8.941
				c3.923,3.74,12.042,8.211,19.341,10.491c7.39,2.281,7.937,24.541,8.028,29.559c0.091,5.018-5.93,16.878-12.863,19.341
				s-16.878-0.182-25.271,0.547c-8.393,0.821-8.667-3.74-14.87-8.393c-6.112-4.653-10.035-4.288-10.948-11.677
				s-5.109-13.228-6.933-14.871c-1.733-1.733-2.554-3.376-2.554-3.376s-4.744,20.618-7.755,25.18
				c-3.011,4.562,0.639,13.958-2.828,23.172c-3.467,9.214,4.014,7.846-0.73,17.699c-4.744,9.853-2.19,14.141-1.095,20.8
				C587.912,379.714,584.719,381.904,584.719,381.904z"/>
			<path fill="#DCE8EA" d="M652.321,274.526c5.018,4.835,4.835-2.828,10.035,3.649s6.204,6.842,7.755,14.141
				s-3.102,18.064-5.93,20.983c-2.828,2.919-4.105,7.207-6.842-1.095c-2.646-8.302,0-14.141-6.112-9.214s-17.334,6.204-8.941-0.547
				c8.302-6.66,21.257-9.762,7.663-7.663c-13.593,2.007-34.941-0.182-23.537-4.379c11.404-4.197,31.839-9.944,23.72-12.681
				s-20.071,1.277-27.278-1.368c-7.116-2.646-0.365,0.182,9.762-2.372c10.035-2.554,8.393-6.386,1.825-5.656
				c-6.66,0.639-24.45-2.098-18.793-3.102c5.747-1.095-5.747-7.116,0.456-10.948c6.295-3.74-1.551,6.021-8.576-0.821
				c-7.025-6.751-10.127-14.779-17.243-21.713c-7.116-6.842,1.095,10.035,7.572,19.158c6.477,9.214-31.201-10.309-19.979,5.291
				c11.221,15.692-8.393,2.646,5.565,16.239c13.958,13.593,8.849,13.137-8.302,11.951s-34.303,1.095-11.86,8.393
				s27.916,7.846-0.091,12.772c-28.099,4.926-49.264,13.32-16.421,13.958c32.843,0.639,32.843,5.93,12.407,8.484
				c-20.436,2.463-33.299,0.274-8.849,9.214c24.45,8.941,38.225,8.12,16.33,10.491c-21.895,2.372-45.25,9.214-14.323,8.667
				c30.927-0.547,21.895,6.751,8.302,11.86c-13.593,5.018-17.699,17.151-1.277,10.856c16.421-6.295,17.516-2.372,3.649,4.926
				c-13.958,7.298-23.355,11.495-7.481,14.506c15.874,3.011,22.99,5.656,16.239,9.397c-6.751,3.74-34.759,12.955-52.092,0.821
				c-17.242-12.134-10.856-3.376-46.436-19.432c-35.671-16.056-50.906-17.151-38.408-20.344
				c12.499-3.193-25.909-22.351-14.414-31.201c11.495-8.849,43.517-3.284,15.235-14.871c-28.281-11.586-43.973-6.569-17.881-12.225
				c26.092-5.656,32.843-6.204,15.783-11.13c-17.151-5.018,4.288-5.747-7.481-11.951s10.583-10.948,0-15.783
				c-10.583-4.835-23.172,0.639-8.119-7.207c15.144-7.755-1.095-11.677-10.948-11.495c-9.762,0.182-7.937-1.004-10.674-8.941
				c-2.646-7.937-12.955-10.583-14.323,3.467c-1.368,13.867-1.095,24.997-7.937,18.337c-6.842-6.66-11.951-7.39-6.386,2.372
				c5.656,9.67,10.127,21.348-2.463,14.688c-12.681-6.477-22.078-12.042-17.607-2.919c4.47,9.123-10.583,9.944-12.134,7.481
				c-1.551-2.554-5.839,3.376-7.755-0.547c-1.916-4.014-4.561-10.674,2.19-21.804c6.66-11.221,10.4-11.586,19.797-13.593
				c9.397-2.098,17.151,9.67,13.685,1.004c-3.467-8.667-11.769-5.018-0.821-16.33c10.948-11.313,13.137-18.885,22.443-28.555
				s24.815-18.976,34.303-18.52c9.579,0.456,30.288-8.941,45.341-17.607c15.053-8.667,22.169-9.123,28.373-8.211
				s3.102-2.554-8.758-3.284c-11.86-0.73-13.502,0-11.13-3.832c2.281-3.832,4.926-5.656,14.871-6.751
				c9.944-1.095,16.969,0,30.927,4.379c13.958,4.47,23.72,11.039,25.362,12.59c1.551,1.551,0.547,3.558-3.102,1.277
				c-3.558-2.281-6.569-7.572-10.856-5.2c-4.105,2.463,0.639,4.379-2.19,4.379c-2.828,0.091,23.72,8.667,17.242,12.316
				c-6.386,3.649-14.323,1.642,4.014,7.846c18.337,6.204,15.144,9.67,27.552,14.779c12.407,5.109,11.039,1.642,22.899,7.207
				c11.951,5.565,18.793,17.881,24.358,22.625c5.474,4.653,7.39,12.955,6.386,17.06c-1.095,4.105,4.926,8.576-1.825,9.032
				c-6.842,0.365-3.284,7.025,4.014,6.934c7.207-0.091,14.049-1.368,11.86,0.912c-2.19,2.281-8.12,2.919,1.095,6.112
				C655.331,274.982,650.04,272.336,652.321,274.526z"/>
			<path fill="#1A2233" d="M603.695,469.758c-0.182,0.365-0.274,0.639-0.456,1.004c-2.007,3.467-4.835,5.2-5.93,5.656
				c-0.365,0.182-0.456,0.182-0.456,0.182s-0.639,3.558-1.733,7.937c-1.642,5.839-4.379,13.137-8.484,15.418
				c-7.207,4.014-23.537,2.19-37.678,3.923c-14.049,1.733-26.639,1.733-29.65-1.095c-1.733-1.733-1.277-9.032-1.186-10.856
				c0-0.182,0-0.365,0.091-0.456c0,0-0.639-0.274-3.284,0.73c-2.646,1.004-2.372,2.919-4.379,5.018
				c-1.916,2.007-7.025,3.193-11.769,3.284c-4.744,0.091-5.656-2.737-9.032-2.737c-3.467,0.091-4.379-4.197-6.021-5.839
				c-1.642-1.642-8.119-0.547-8.576,0.091c-0.456,0.547,1.642,11.951-2.098,12.042c-3.74,0.091-12.225,0.091-24.723,0.365
				c-12.59,0.182-34.029-1.46-39.138-4.835c-3.74-2.372-6.842-12.316-8.211-17.79c-0.547-2.098-0.912-3.558-0.912-3.558
				s-2.737,0.091-4.014-0.639c-0.182-0.091-0.274-0.182-0.456-0.365c-0.547-0.639-2.007-2.919-2.19-5.747
				c-0.091-2.19,0.456-4.744,2.737-7.207c5.2-5.383,17.06-8.393,28.92-8.576c11.769-0.182,26.548,0.182,49.812,0.547
				c23.264,0.274,70.338-2.007,81.195-1.095c10.948,0.912,30.288-1.004,37.496-4.653c7.207-3.649,9.762-1.733,12.042,0.639
				C607.892,453.337,606.067,464.65,603.695,469.758z"/>
			<path fill="#CC6132" d="M603.695,469.758c-0.182,0.365-0.274,0.639-0.456,1.004c-7.207-2.281-53.278-4.926-101.539-4.197
				c-51.271,0.821-70.612,0.365-94.606,2.372c-6.477,0.547-10.856,1.368-13.867,2.372c-0.091-2.19,0.456-4.744,2.737-7.207
				c5.2-5.383,17.06-8.393,28.92-8.576c11.769-0.182,26.548,0.182,49.812,0.547c23.264,0.274,70.338-2.007,81.195-1.095
				c10.948,0.912,30.288-1.004,37.496-4.653c7.207-3.649,9.762-1.733,12.042,0.639C607.892,453.337,606.067,464.65,603.695,469.758z
				"/>
			<path fill="#0D131E" d="M597.218,476.418c-0.365,0.182-0.456,0.182-0.456,0.182s-0.639,3.558-1.733,7.937
				c-13.776-1.277-43.426-5.291-57.658-7.39c-18.52-2.646-18.702,4.744-19.25,14.141c0,0-0.639-0.274-3.284,0.73
				s-2.372,2.919-4.379,5.018c-1.916,2.007-7.025,3.193-11.769,3.284c-4.744,0.091-5.656-2.737-9.032-2.737
				c-3.467,0.091-4.379-4.197-6.021-5.839c-1.642-1.642-8.119-0.547-8.576,0.091c-1.186-5.109,0.091-11.951-4.47-15.235
				c-4.105-3.011-55.377-1.733-69.791,5.018c-0.547-2.098-0.912-3.558-0.912-3.558s-2.737,0.091-4.014-0.639
				c1.46-0.456,3.376-0.912,5.93-1.368c15.783-2.919,56.745-2.646,98.985-3.376C538.101,472.13,584.537,473.59,597.218,476.418z"/>
			<path fill="#CC6132" d="M585.54,292.225c-0.274-18.885-8.028-36.948-21.53-50.085c-14.506-14.141-36.674-28.281-67.054-27.825
				c-30.38,0.456-52.457,15.418-66.689,30.015c-13.411,13.685-20.618,32.204-20.344,51.363l1.825,112.031
				c0.274,18.793,15.783,33.755,34.576,33.482l107.652-1.733c18.793-0.274,33.755-15.783,33.481-34.576L585.54,292.225
				L585.54,292.225z"/>
			<path fill="#E5683C" d="M562.277,278.358L562.277,278.358c-7.298-22.078-31.474-47.531-64.865-47.075
				c-18.611,0.274-38.59,11.495-49.082,22.26c-14.141,14.597-16.695,23.811-16.148,31.566c-2.646,7.298-4.562,18.155-5.291,35.306
				c-2.19,48.991-5.291,83.019,3.923,91.96c9.214,8.941,19.706,12.772,29.923-2.646c8.576-13.046,7.39-33.846,18.155-44.976
				c1.277-1.368,3.649-0.912,4.379,0.821c0.365,0.821,0.639,1.642,0.821,2.372c3.832,14.962,14.049,18.702,22.26,12.407
				c8.393-6.295,4.926-5.109,4.835-11.86c0-0.821,0.639-2.19,1.916-3.923c1.186-1.733,3.832-1.368,4.562,0.547
				c0.274,0.639,0.456,1.368,0.73,2.098c4.835,15.418,3.011,49.538,15.692,50.359c12.772,0.821,23.902,5.018,34.12-16.056
				C578.242,380.171,575.049,305.909,562.277,278.358z"/>
			<ellipse fill="#1A2233" cx="497.778" cy="381.256" rx="19.158" ry="19.158"/>
			<path fill="#1A2233" d="M510.458,482.257l-20.983,0.365l-1.642-99.806c0,0,2.919,2.281,10.4,2.098
				c7.481-0.091,10.583-2.463,10.583-2.463L510.458,482.257z"/>
			<path fill="#32415B" d="M491.117,389.476c0.912,3.376-0.091,82.381,2.646,87.034c2.737,4.653,5.656,4.288,9.762,3.102
				c4.105-1.095,1.095-78.002,1.004-84.662c-0.091-6.66,0.182-7.298,0.182-7.298S489.84,385.006,491.117,389.476z"/>
			<path fill="#32415B" d="M483.819,375.974c-0.091-5.656,6.477-11.677,13.776-11.769c7.298-0.091,12.59,5.018,14.323,10.4
				c1.825,5.474-6.751,3.376-13.685,2.646C491.3,376.521,483.91,379.258,483.819,375.974z"/>
		</g>
		<circle fill="#1A2233" cx="613.73" cy="628.773" r="10.4"/>
		
			<ellipse transform="matrix(0.9239 -0.3827 0.3827 0.9239 -207.311 239.9541)" fill="#1A2233" cx="499.51" cy="641.089" rx="10.4" ry="10.4"/>
		<circle fill="#1A2233" cx="390.034" cy="632.422" r="10.4"/>
		
			<rect x="389.863" y="616.21" transform="matrix(0.9999 -0.0163 0.0163 0.9999 -10.1299 6.5267)" fill="#1A2233" width="10.401" height="16.148"/>
		
			<rect x="495.42" y="618.125" transform="matrix(0.9999 -0.0163 0.0163 0.9999 -10.1471 8.2487)" fill="#1A2233" width="10.401" height="16.148"/>
		
			<rect x="603.258" y="612.742" transform="matrix(0.9999 -0.0163 0.0163 0.9999 -10.0449 10.0069)" fill="#1A2233" width="10.401" height="16.148"/>
	</g>
</g>
<g id="Firma">
	<g>
		<path fill="none" stroke="#000000" stroke-width="0.75" stroke-miterlimit="10" d="M357.752,98.989
			c-6.401,16.464-14.005,32.461-22.731,47.82c11.338-21.984,30.446-38.785,45.433-58.463"/>
		<path fill="none" stroke="#000000" stroke-width="0.75" stroke-miterlimit="10" d="M344.156,112.126
			c10.779-3.218,21.677-6.036,32.664-8.447c3.064-0.672,6.16-1.316,9.296-1.333c0.459-0.003,1.027,0.082,1.179,0.516
			c0.11,0.314-0.069,0.652-0.264,0.922c-1.087,1.508-2.797,2.421-4.456,3.26c-8.836,4.465-17.987,8.307-27.362,11.487
			c-3.345,1.135-6.771,2.21-9.695,4.191c5.865,1.229,12.002,1.172,17.689,3.061c1.294,0.43,2.621,1.008,3.428,2.107
			c0.935,1.272,0.983,2.964,1.404,4.485c0.919,3.318,3.892,5.97,7.293,6.505"/>
	</g>
</g>
</svg>
