<?xml version="1.0" encoding="UTF-8"?>
<svg width="154px" height="30px" viewBox="0 0 154 30" version="1.1" xmlns="http://www.w3.org/2000/svg" xmlns:xlink="http://www.w3.org/1999/xlink">
    <!-- Generator: Sketch 50.2 (55047) - http://www.bohemiancoding.com/sketch -->
    <title>dmstk-logo</title>
    <desc>Created with Sketch.</desc>
    <defs></defs>
    <g id="Page-1" stroke="none" stroke-width="1" fill="none" fill-rule="evenodd">
        <path d="M62.2831953,29.5268194 L62.2831953,9.25561075 L76.7211265,9.25561075 L76.7211265,13.2542739 L66.3288624,13.2542739 L66.3288624,17.3890067 L74.7505082,17.3890067 L74.7505082,21.3925604 L66.3288624,21.3925604 L66.3288624,25.5172246 L76.7211265,25.5172246 L76.7211265,29.5268194 L62.2831953,29.5268194 Z M71.8128992,6.78765885 L67.1971923,6.78765885 L64.5898948,3.2671092 L66.7754321,-2.27373675e-13 L69.5007185,3.67215364 L72.2225432,-2.27373675e-13 L74.414427,3.27746545 L71.8128992,6.78765885 Z M112.008206,9.25561075 L116.136667,9.25561075 L116.136667,29.5268194 L112.008206,29.5268194 L112.008206,9.25561075 Z M92.9265851,13.3725078 L92.9265851,9.25561075 L109.891904,9.25561075 L109.891904,13.3725078 L103.489919,13.3725078 L103.489919,29.5268194 L99.3239549,29.5268194 L99.3239549,13.3725078 L92.9265851,13.3725078 Z M146.293965,9.25561075 L153.536298,29.5268194 L149.266192,29.5268194 L147.744451,25.2358798 L140.525774,25.2358798 L138.99509,29.5268194 L134.730754,29.5268194 L141.908755,9.25561075 L146.293965,9.25561075 Z M141.905871,21.2372166 L144.101793,15.0902069 L146.279541,21.2372166 L141.905871,21.2372166 Z M28.9958709,8.97886874 C34.7831019,8.97886874 39.4914115,13.6734144 39.4914115,19.4435717 C39.4914115,25.217181 34.7831019,29.9140281 28.9958709,29.9140281 C23.2086399,29.9140281 18.5006188,25.217181 18.5006188,19.4435717 C18.5006188,13.6734144 23.2086399,8.97886874 28.9958709,8.97886874 Z M28.9958709,25.6599107 C25.5655352,25.6599107 22.7747634,22.8732165 22.7747634,19.4475991 C22.7747634,16.0300366 25.5655352,13.2496712 28.9958709,13.2496712 C32.4264951,13.2496712 35.2172669,16.0300366 35.2172669,19.4475991 C35.2172669,22.8732165 32.4264951,25.6599107 28.9958709,25.6599107 Z M7.2729117,9.23144617 C12.8732066,9.23144617 17.4291978,13.7741002 17.4291978,19.3578449 C17.4291978,24.9467679 12.8732066,29.4937369 7.2729117,29.4937369 L-4.40536496e-13,29.4937369 L-4.40536496e-13,9.23144617 L7.2729117,9.23144617 Z M7.31560699,25.3362779 L4.1278844,25.3362779 L4.1278844,13.406741 L7.31560699,13.406741 C10.6141066,13.406741 13.2978516,16.0780781 13.2978516,19.3618724 C13.2978516,22.6560229 10.6141066,25.3362779 7.31560699,25.3362779 Z M50.5895903,18.7833607 L55.7580281,9.25561075 L60.4126801,9.25561075 L60.4126801,29.5268194 L56.2749873,29.5268194 L56.2749873,16.7172889 L50.5898788,27.1750876 L44.9044818,16.7184396 L44.9044818,29.5268194 L40.7760204,29.5268194 L40.7760204,9.25561075 L45.4136519,9.25561075 L50.5895903,18.7833607 Z M134.418329,9.25561075 L127.315621,18.8685121 L134.506604,29.5268194 L129.484138,29.5268194 L124.694765,22.4155277 L122.686355,25.1337557 L122.686355,29.5268194 L118.615302,29.5268194 L118.615302,9.25561075 L122.686355,9.25561075 L122.686355,18.2103149 L129.418941,9.25561075 L134.418329,9.25561075 Z M89.0563148,18.7097163 C92.0421002,20.3373736 93.0699605,23.4298649 91.7037112,26.2456142 C90.5529578,28.6177708 88.061053,30.0213303 85.0380535,29.9997548 C83.2843733,29.9870972 81.5113649,29.4756135 80.1829067,28.5829623 C78.4719219,27.4331309 77.7807198,25.8926387 77.4954114,25.2315647 L81.3333717,23.6484968 C82.1800654,25.5669922 83.8446047,25.9449953 85.1081545,25.9539132 C85.2397022,25.9550639 85.3752885,25.9516118 85.5114519,25.9441323 C86.5672949,25.8848715 87.7745907,25.1501531 87.966431,24.0227602 C88.1008635,23.2336715 87.6320808,22.5559125 86.6800912,22.163238 C85.769643,21.7878239 85.1344063,21.6224116 84.4619555,21.447506 C83.64411,21.2349153 82.7982817,21.0148449 81.4357827,20.3885795 C79.6708518,19.5773399 78.4289381,18.1007113 78.028814,16.337272 C77.6234973,14.5519696 78.1144931,12.7120092 79.4117952,11.156558 C80.6580361,9.66180589 82.6935628,8.81403176 84.9962236,8.83071683 C86.8788551,8.84394982 88.6498441,9.47539339 89.8908923,10.521087 C91.4801379,11.8596323 91.9290154,13.2956989 92.0666212,13.6725514 L92.0839301,13.7234696 L88.2768373,15.2935922 L88.1822153,15.0720835 C88.179619,15.0660423 87.8971954,14.4708456 87.2478231,13.7588535 C86.76202,13.2263696 85.8815739,12.8915175 84.9497781,12.884901 C83.9519199,12.8777092 83.0668581,13.2459314 82.5824974,13.8701831 C81.7831146,14.9000547 82.4264288,16.0268722 82.7512592,16.3208746 C83.3588016,16.8706189 84.1581843,17.0567437 85.1701781,17.2926361 C86.2317907,17.5397477 87.5005331,17.8616545 89.0563148,18.7097163 Z" id="dmstk-logo" fill="#F02D00"></path>
    </g>
</svg>