<?xml version="1.0" encoding="utf-8"?>
<!-- Generator: Adobe Illustrator 25.2.1, SVG Export Plug-In . SVG Version: 6.00 Build 0)  -->
<svg version="1.1" id="Capa_1" xmlns="http://www.w3.org/2000/svg" xmlns:xlink="http://www.w3.org/1999/xlink" x="0px" y="0px"
	 viewBox="0 0 282.9 100.4" style="enable-background:new 0 0 282.9 100.4;" xml:space="preserve">
<style type="text/css">
	.st0{fill:#FFFFFF;}
	.st1{fill:#E03140;}
	.st2{fill:#FBA327;}
	.st3{fill:#EDE505;}
	.st4{fill:#838383;}
	.st5{fill:#1554A2;}
</style>
<g>
	<path class="st0" d="M116.2,79.8c-6.2,0-8.6-3.9-8.6-3.9l1.2-6.5c0,0,2.4,2.8,5.4,2.8c3.6,0,5.2-2.9,5.2-6.4
		c0-11.1-11.4-13.2-11.4-27.6c0-8.5,4.7-14.4,13.2-14.4c4.1,0,6.5,1.3,6.5,1.3v7c0,0-1.6-1.5-4.4-1.5c-3.9,0-5.9,3.2-5.9,7.1
		c0,10.4,11.4,13.1,11.4,27.6C128.7,73.3,124.4,79.8,116.2,79.8z"/>
	<path class="st0" d="M148.8,80l-2.3-4.4c-0.4,0.8-2.2,4.1-7.3,4.1c-5.3,0-9-4.1-9-11.8c0-12.7,7.8-13.7,14-15.1
		c0-5.6-0.3-8.4-5.9-8.4c-2.3,0-5.6,1.4-5.6,1.4v-6.4c0,0,3.5-1.4,8-1.4c9.7,0,11.9,4.8,11.9,15.2v12.1c0,6.2,0.1,6.6,2,12.2
		L148.8,80z M144.3,59c-4.2,1.1-5.6,2.2-5.6,8.5c0,2.9,0.5,5.2,2.8,5.2c3.1,0,2.9-4,2.9-8.5L144.3,59L144.3,59z"/>
	<path class="st0" d="M170.7,78.7V49.5c0-2.6-0.1-4.2-1.9-4.2c-2,0-2.9,2.2-3.3,3.3v30.2h-8.3V52.5c0-6.3,0-6.7-2-12.3l5.9-2.4
		l2.2,4.2c1.2-1.4,3.6-3.9,8.2-3.9c5.3,0,7.6,4.1,7.6,9.7v31h-8.4V78.7z"/>
	<path class="st0" d="M206.8,71.2c0,10.9,0,12.7-3.2,21.7c0,0.1-1.6,4.5-1.6,4.5l-6.6-2.6c2.5-10.8,2.4-13.2,2.4-23.6V31.3l-3.9,0.1
		v-6.7h13L206.8,71.2L206.8,71.2z"/>
	<path class="st0" d="M222.9,79.7c-10.7,0-12.3-8.5-12.3-21c0-12,1.5-20.8,12.3-20.8s12.4,8.6,12.4,20.8
		C235.2,71.1,233.7,79.7,222.9,79.7z M223,44.3c-3.1,0-3.2,4.5-3.2,14.4c0,10.2,0.2,14.7,3.2,14.7s3.2-4.4,3.2-14.8
		C226.2,48.6,225.9,44.3,223,44.3z"/>
	<path class="st0" d="M244.3,79.7c-4.9,0-7.7-2.8-7.7-2.8l1.9-5.9c0,0,1.8,2,4.6,2c2.5,0,4.1-1.6,4.1-3.8c0-5.3-10.1-10.7-10.1-20.7
		c0-6.3,4.6-10.6,10.9-10.6c4,0,6.2,1.5,6.2,1.5v6.3c0,0-1.5-1.3-4.1-1.3c-2.7,0-4.7,1.5-4.7,4.1c0,5.5,10,11,10,20.6
		C255.4,75.5,250.8,79.7,244.3,79.7z"/>
	<path class="st0" d="M265.5,60.4c0,7.1,1.4,12.8,8.5,12.8c3.2,0,4.9-1.1,4.9-1.1v6.2c0,0-2.7,1.3-6.8,1.3
		c-12.1,0-15.1-9.4-15.1-21.5c0-10.3,1.6-20.2,12-20.2c11.5,0,11.1,11.1,11.1,22.5C280.1,60.4,265.5,60.4,265.5,60.4z M263.9,33.8
		l-1.1-4l14.1-6.1v7.4L263.9,33.8z M269.1,44.3c-3.2,0-3.6,5.4-3.6,9.7h6.4C272,49.9,272.1,44.3,269.1,44.3z"/>
</g>
<g>
	<path id="XMLID_14_" class="st1" d="M78.8,55.8c3.8-0.1,7.4-1.6,10-3.6c6.1-4.7,7.5-10.7,4.4-16.8c-1.3-2.9-3.4-5.3-4.3-8.5
		c-1.1-3.9,1.2-6.8,4.2-7.9c-1.5,0.2-2.9,0.4-4.3,1c-5.6,2.2-8.9,8.4-5.1,14.3l0,0c-2.1-3.2-2.1-5.4-1.6-8c0.8-5.1,4-8.6,2.7-14.2
		c-1.2-5.4-6.3-8.9-11.3-9.8c3,1.9,4.6,6.7,3.3,11.1c-1.3,4.6-4.6,8.5-7.6,12.1c-5.6,6.8-10.5,15.2-4.3,23.5
		C68.4,53.4,74.9,55.8,78.8,55.8L78.8,55.8z"/>
</g>
<g>
	<path id="XMLID_10_" class="st2" d="M78.7,54.8c2.7,0,6.3-1.5,8.6-3.1c4.4-3.3,6.5-7.4,4.9-12.5c-1.1-3.4-3.1-6.2-4.6-9.4
		c-1-2.2-1-5.3,0.3-7.2c-6.8,3.6-5.3,8.6-3.2,12.4c-1.6-0.7-2.9-1.7-3.7-3.4c-2.2-4.4,0.1-7.8,1.4-12.1c1.5-5.2,1.1-9.2-3.1-12.5
		c1.2,2.2,1.1,4.9,0.5,7.2c-0.7,2.6-2,5.1-3.7,7.4C74.3,24,71.7,27,70,29.5c-1.8,2.6-4,8.5,1.1,13.4c-2.9-0.3-5.1-3.7-5.4-6
		c-2.1,9.2,4,17,12.7,18h0.3V54.8z"/>
</g>
<g>
	<path id="XMLID_8_" class="st3" d="M79.1,53.9c-2.3-0.1-7.7-2.5-7.9-8.7c0.8,2.4,3.1,3.9,4.8,3.7c1.3-1.5,1.6-3.6,0-5.5
		c-1.4-1.7-3.7-3.3-4.6-5.4c-0.7-1.8-0.7-3.6-0.3-5.3c0.9-3.5,4.3-7,7.4-8.8c-1.3,1.9-1.8,3.4-2,4.5c-0.2,1.5,0.1,3,0.8,4.3
		c0.7,1.3,1.9,2.3,2.8,3.5c1.3,1.5,3.1,4.9,2.1,6.9c2.2-1.1,3.1-4.6,2.6-6c1,1.1,1.8,2.3,2.1,3.7c1.6,5.3-1.1,11.8-7.6,13.1H79.1z"
		/>
</g>
<path class="st4" d="M65.2,17.7c-1.7,1.7-3.2,3.5-4.7,5.3c-0.9-0.3-1.7-0.5-2.6-0.7c-0.9-0.2-1.8-0.4-2.7-0.5
	c-0.4-2.3-0.8-4.5-1.5-6.8c-1.2-0.1-2.5-0.2-3.7-0.2c-1,2.2-1.8,4.4-2.4,6.6c-0.9,0-1.8,0.2-2.7,0.3c-0.9,0.1-1.8,0.3-2.7,0.5
	c-1.2-2-2.4-3.9-3.8-5.8c-1.2,0.4-2.3,0.7-3.5,1.2c-0.1,2.4-0.1,4.8,0.1,7.1c-0.8,0.4-1.6,0.8-2.4,1.3c-0.8,0.4-1.6,0.9-2.3,1.4
	c-1.8-1.4-3.7-2.8-5.6-4c-1,0.7-1.9,1.5-2.8,2.3c0.8,2.3,1.7,4.4,2.7,6.5c-0.6,0.6-1.2,1.3-1.8,2c-0.6,0.7-1.1,1.4-1.6,2.2
	c-2.2-0.7-4.4-1.2-6.7-1.7c-0.6,1-1.2,2.1-1.8,3.2c1.5,1.8,3.2,3.5,4.9,5.1c-0.4,0.8-0.7,1.7-0.9,2.6c-0.3,0.9-0.5,1.7-0.7,2.6
	c-2.3,0.1-4.6,0.4-6.9,0.8c-0.2,1.2-0.4,2.4-0.5,3.6c2.1,1.1,4.2,2.1,6.3,3h7.7c0.1-2.6,0.5-5.2,1.3-7.7c1.1-3.2,2.7-6.3,4.9-8.9
	s4.8-4.9,7.8-6.5c3-1.7,6.2-2.8,9.6-3.3c3.4-0.5,6.8-0.4,10.1,0.4c2.3,0.5,4.6,1.4,6.7,2.5c1.3-2.5,3-4.8,4.7-7c0.4-2,0.7-4,0.9-6
	C67.4,18.7,66.3,18.1,65.2,17.7z"/>
<path class="st5" d="M95.3,77.9C94.5,78,93.6,78,92.6,78s-2-0.1-3-0.2c-2.1-0.1-4.2-0.2-5.7-0.3c-1.6-0.1-2.6-0.2-2.6-0.2v-0.1
	c0,0,1-0.1,2.6-0.2s3.6-0.2,5.7-0.3c1,0,2.1-0.2,3-0.2c0.5,0,0.9,0,1.4,0c-0.6-0.5-1.1-1.1-1.5-1.8c-0.5,0-1,0-1.5,0.1
	c-1.3,0-2.7,0.1-4.3,0.1c-1.5,0-3.1,0-4.7,0.1c-3.3,0-6.8-0.1-10.3-0.2c-7-0.1-14-0.2-19.3-0.3c-5.3-0.1-8.8-0.2-8.8-0.2v-0.1
	c0,0,3.5-0.1,8.8-0.2s12.3-0.2,19.3-0.3c3.5-0.1,7-0.2,10.3-0.2c1.6,0,3.2,0,4.7,0.1c1.5,0,2.9,0.1,4.3,0.1c0.3,0,0.6,0,0.9,0
	c-0.3-0.6-0.5-1.2-0.7-1.9c-0.4,0-0.7,0-1.1,0c-1.1,0-2.3,0-3.5,0.1c-2.4,0-5-0.1-7.6-0.2c-5.2-0.1-10.4-0.2-14.3-0.3
	c-3.9-0.1-6.5-0.2-6.5-0.2v-0.1c0,0,2.6-0.1,6.5-0.2s9.1-0.2,14.3-0.3c2.6-0.1,5.2-0.2,7.6-0.2c1.2,0,2.4,0,3.5,0.1
	c0.3,0,0.5,0,0.8,0c-0.1-0.6-0.2-1.2-0.2-1.9c-0.5,0-1,0-1.6,0.1c-1.6,0-3.3,0.1-5.2,0.1c-1.8,0-3.8,0-5.7,0.1
	c-4,0-8.2-0.1-12.5-0.2c-8.5-0.1-17-0.2-23.4-0.3c-6.4-0.1-10.6-0.2-10.6-0.2V68c0,0,4.3-0.1,10.6-0.2c6.4-0.1,14.9-0.2,23.4-0.3
	c4.2-0.1,8.5-0.2,12.5-0.2c2,0,3.9,0,5.7,0.1c1.8,0,3.6,0.1,5.2,0.1c0.5,0,1.1,0,1.6,0c0-0.6,0.1-1.3,0.2-1.9c-0.5,0-1,0-1.6,0
	c-1.2,0-2.5,0-3.8,0.1c-2.6,0-5.4-0.1-8.3-0.2c-5.6-0.1-11.3-0.2-15.5-0.3c-4.2-0.1-7-0.2-7-0.2v-0.1c0,0,2.8-0.1,7-0.2
	s9.9-0.2,15.5-0.3c2.8-0.1,5.6-0.2,8.3-0.2c1.3,0,2.6,0,3.8,0.1c0.6,0,1.3,0,1.9,0.1c0.2-0.7,0.5-1.4,0.8-2c-1.4,0-2.9,0.1-4.6,0.1
	c-1.9,0-3.9,0.1-6,0.1c-2.1,0.1-4.4,0-6.7,0.1c-4.7,0-9.6-0.1-14.6-0.2c-9.9-0.1-19.9-0.2-27.3-0.3C25.2,62.1,20.2,62,20.2,62v-0.1
	c0,0,5-0.1,12.4-0.2c7.4-0.1,17.4-0.2,27.3-0.3c5-0.1,9.9-0.2,14.6-0.2c2.3,0,4.6,0,6.7,0.1c2.1,0,4.1,0.1,6,0.1s3.6,0.1,5.1,0.2
	c0.5-0.8,1-1.4,1.6-1.9c-0.4,0-0.9,0-1.4,0.1c-1,0-2-0.1-3-0.2c-2.1-0.1-4.2-0.2-5.7-0.3c-1.6-0.1-2.6-0.2-2.6-0.2V59
	c0,0,1-0.1,2.6-0.2c1.6-0.1,3.6-0.2,5.7-0.3c1,0,2.1-0.2,3-0.2c1,0,1.9,0.1,2.7,0.2c0.2,0,0.4,0.1,0.6,0.1c0.6-0.2,1.3-0.4,1.9-0.4
	v-0.5H10.5l0,0c-4.2,0-7.6,4.8-7.6,10.6c0,5.9,3.4,10.6,7.6,10.6l0,0h87.4v-0.5c-0.7,0-1.3-0.1-1.9-0.4
	C95.7,77.8,95.5,77.8,95.3,77.9z"/>
</svg>
