<?xml version="1.0" encoding="utf-8"?>
<!-- Generator: Adobe Illustrator 25.2.1, SVG Export Plug-In . SVG Version: 6.00 Build 0)  -->
<svg class="svgIcon" version="1.1" id="Capa_1" xmlns="http://www.w3.org/2000/svg"
	xmlns:xlink="http://www.w3.org/1999/xlink" x="0px" y="0px"
	viewBox="0 0 2000 2000" style="enable-background:new 0 0 2000 2000;" xml:space="preserve">

<g>
	<g>
		<path fill="currentcolor" class="st0" d="M653.1,1594.8c-99,0-177.6-9.1-240.4-27.7c-58.4-17.4-102.8-43.1-135.7-78.8c-31.8-34.5-54.4-79.8-68.9-138.6
			c-14.2-57.5-21.1-129.8-21.1-220.9V65c0-11.3,9.2-20.5,20.5-20.5h221.1c11.3,0,20.5,9.2,20.5,20.5v259.1c0,44.7,36.4,81,81,81
			h259.1c11.3,0,20.5,9.2,20.5,20.5v221.1c0,11.3-9.2,20.5-20.5,20.5H549.9c-55.5,0-100.6,45.1-100.6,100.6v454.3
			c0,89.3,72.7,162,162,162h322.1c5.5,0,10.6,2.1,14.5,6l169.6,169.6c7.2,7.2,7,16.3,4.5,22.4c-2.5,6.1-8.9,12.7-19,12.7H653.1z"/>
	</g>
	<g>
		<path  fill="currentcolor" class="st0" d="M1503.8,1955.5c-8.6,0-16.6-3.9-21.9-10.7l-322.9-415.2c-2.8-3.6-4.3-8-4.3-12.5v-105.3
			c0-15.3,12.4-27.7,27.7-27.7h173.1c116.6,0,211.4-94.8,211.4-211.4v-294c0-116.6-94.8-211.4-211.4-211.4H873.3
			c-15.3,0-27.7-12.4-27.7-27.7V432.9c0-15.3,12.4-27.7,27.7-27.7l458.1-0.7c128,0,223.7,26,292.4,79.4c14.9,11.6,30.4,26,45.8,42.8
			c57.7,62.5,99.2,140.2,120,224.5c11.9,48.1,18.3,82.4,18.6,99.3l4.5,244.5c1.2,64.7-6.8,126.8-23.6,184.6
			c-35.5,121.6-97.9,187.6-144.1,221.6c-40.2,29.6-73.9,40-83.3,42.5c-11.7,3.1-22,10-29,19.3c-14.1,18.9-14.1,44.2,0,63
			l213.9,285.1c6.4,8.6,7.4,19.4,2.6,29c-4.8,9.6-14,15.3-24.8,15.3H1503.8z"/>
	</g>
</g>
<g>
	<path  fill="currentcolor" class="st0" d="M868.4,929.6c4.7-5.1,1.1-13.3-5.8-13.3h-85.1c-2.1,0-4.1,0.8-5.6,2.3l-108.1,108.1c-3.1,3.1-3.1,8.1,0,11.2
		L771.9,1146c1.5,1.5,3.5,2.3,5.6,2.3h85.1c6.9,0,10.5-8.2,5.8-13.3l-89.3-97.4c-2.8-3-2.8-7.7,0-10.7L868.4,929.6z"/>
	<path fill="currentcolor" class="st0" d="M1228.1,1146l108.1-108.1c3.1-3.1,3.1-8.1,0-11.2l-108.1-108.1c-1.5-1.5-3.5-2.3-5.6-2.3h-85.1
		c-6.9,0-10.5,8.2-5.8,13.3l89.3,97.4c2.8,3,2.8,7.7,0,10.7l-89.3,97.4c-4.7,5.1-1.1,13.3,5.8,13.3h85.1
		C1224.6,1148.3,1226.6,1147.5,1228.1,1146z"/>
	<path fill="currentcolor" class="st0" d="M994.7,1216c5.4,0,10-3.7,11.3-8.9l91-373c1.8-7.3-3.8-14.4-11.3-14.4h-63c-5.4,0-10,3.7-11.3,8.9l-91,373
		c-1.8,7.3,3.8,14.4,11.3,14.4H994.7z"/>
</g>
</svg>